<svg width="172" height="169" viewBox="0 0 172 169" fill="none" xmlns="http://www.w3.org/2000/svg">
<path d="M164.947 50.3007C183.517 92.7558 164.155 142.227 121.699 160.797C79.2444 179.367 29.7736 160.005 11.2033 117.55C-7.36691 75.0945 11.9956 25.6236 54.4507 7.05337C96.9057 -11.5169 146.377 7.84561 164.947 50.3007Z" fill="url(#paint0_linear_0_2178)"/>
<path d="M54.6767 59.3946C57.5343 65.9258 54.5561 73.537 48.0248 76.3945C41.4935 79.252 33.8823 76.2738 31.0248 69.7426C28.1673 63.2113 31.1454 55.6001 37.6768 52.7426C44.2081 49.8851 51.8192 52.8633 54.6767 59.3946Z" fill="url(#paint1_linear_0_2178)"/>
<path d="M133.069 24.0421C134.712 26.3714 134.466 29.3719 132.52 30.7439C130.575 32.1159 127.666 31.3398 126.024 29.0105C124.381 26.6812 124.627 23.6807 126.572 22.3087C128.518 20.9367 131.427 21.7127 133.069 24.0421Z" fill="url(#paint2_linear_0_2178)"/>
<path d="M163.156 85.5208C165.71 86.41 166.783 89.9951 165.553 93.5283C164.323 97.0615 161.255 99.205 158.701 98.3158C156.148 97.4266 155.075 93.8415 156.305 90.3082C157.535 86.775 160.603 84.6316 163.156 85.5208Z" fill="url(#paint3_linear_0_2178)"/>
<path d="M85.6249 3.05451C85.7898 4.49487 82.9101 6.0073 79.1931 6.4326C75.476 6.85791 72.3292 6.03504 72.1643 4.59468C71.9995 3.15431 74.8792 1.64189 78.5962 1.21658C82.3132 0.791277 85.4601 1.61414 85.6249 3.05451Z" fill="url(#paint4_linear_0_2178)"/>
<path d="M117.117 132.131C118.92 141.518 111.353 150.862 100.215 153.002C89.0778 155.141 78.5875 149.265 76.7846 139.877C74.9817 130.49 82.549 121.146 93.6866 119.007C104.824 116.868 115.314 122.744 117.117 132.131Z" fill="url(#paint5_linear_0_2178)"/>
<path d="M59.7657 3.69344C60.3254 4.83902 56.9886 7.61964 52.3129 9.90411C47.6371 12.1886 43.3929 13.1118 42.8332 11.9662C42.2735 10.8207 45.6102 8.04005 50.286 5.75558C54.9618 3.4711 59.206 2.54785 59.7657 3.69344Z" fill="#8A0F18"/>
<path d="M60.4996 5.19898C61.4654 7.17581 58.4579 10.6303 53.7821 12.9148C49.1063 15.1993 44.5329 15.4487 43.5671 13.4719C42.6013 11.495 45.6088 8.04055 50.2846 5.75606C54.9604 3.47156 59.5338 3.22215 60.4996 5.19898Z" fill="#8A0F18"/>
<path d="M57.0895 3.92992C57.2524 4.26325 54.7297 5.83049 51.4549 7.43046C48.1802 9.03043 45.3935 10.0572 45.2306 9.72392C45.0678 9.39059 47.5904 7.82335 50.8652 6.22338C54.1399 4.62342 56.9267 3.5966 57.0895 3.92992Z" fill="#480307"/>
<path d="M1.26655 96.2941C3.25146 95.6897 6.8604 101.767 9.32735 109.869C11.7943 117.971 12.1851 125.028 10.2002 125.633C8.21527 126.237 4.60633 120.159 2.13938 112.058C-0.327576 103.956 -0.718352 96.8985 1.26655 96.2941Z" fill="url(#paint6_linear_0_2178)"/>
<path d="M3.87521 95.4998C7.3004 94.4568 12.077 100.179 14.5439 108.281C17.0109 116.382 16.2342 123.795 12.809 124.838C9.38379 125.881 4.60723 120.159 2.14024 112.058C-0.326752 103.956 0.45002 96.5428 3.87521 95.4998Z" fill="url(#paint7_linear_0_2178)"/>
<path d="M0.957785 100.654C1.53532 100.479 3.40412 104.936 5.13188 110.61C6.85963 116.284 7.79207 121.026 7.21454 121.202C6.63701 121.378 4.7682 116.921 3.04045 111.247C1.31269 105.573 0.380254 100.83 0.957785 100.654Z" fill="#350003"/>
<path d="M72.037 166.257C72.1147 165.159 79.0383 164.404 87.5013 164.572C95.9642 164.74 102.762 165.767 102.684 166.866C102.606 167.965 95.6828 168.72 87.2199 168.551C78.7569 168.383 71.9593 167.356 72.037 166.257Z" fill="url(#paint8_linear_0_2178)"/>
<path d="M72.1378 164.813C72.2719 162.917 79.2412 161.516 87.7041 161.684C96.167 161.852 102.919 163.526 102.785 165.422C102.651 167.318 95.6814 168.719 87.2185 168.551C78.7556 168.383 72.0037 166.709 72.1378 164.813Z" fill="url(#paint9_linear_0_2178)"/>
<path d="M76.0572 167.168C76.0798 166.848 80.9031 166.684 86.8302 166.802C92.7574 166.92 97.544 167.274 97.5213 167.594C97.4987 167.914 92.6755 168.078 86.7483 167.96C80.8212 167.842 76.0346 167.488 76.0572 167.168Z" fill="#150303"/>
<path d="M159.216 131.003C157.567 130.251 158.715 124.184 161.781 117.452C164.847 110.719 168.67 105.87 170.319 106.621C171.969 107.372 170.821 113.439 167.755 120.172C164.688 126.905 160.866 131.754 159.216 131.003Z" fill="url(#paint10_linear_0_2178)"/>
<path d="M157.049 130.017C154.203 128.72 154.381 122.211 157.447 115.479C160.513 108.746 165.306 104.338 168.152 105.635C170.999 106.931 170.821 113.44 167.755 120.173C164.689 126.906 159.896 131.313 157.049 130.017Z" fill="url(#paint11_linear_0_2178)"/>
<path d="M161.937 128.325C161.457 128.107 162.809 124.107 164.956 119.392C167.103 114.676 169.233 111.031 169.713 111.249C170.193 111.468 168.841 115.468 166.694 120.183C164.547 124.898 162.417 128.544 161.937 128.325Z" fill="#130406"/>
<path d="M159.662 37.5605C158.729 38.1966 155.867 35.6247 153.271 31.816C150.675 28.0073 149.326 24.404 150.259 23.7679C151.192 23.1318 154.054 25.7036 156.65 29.5123C159.247 33.3211 160.595 36.9243 159.662 37.5605Z" fill="url(#paint12_linear_0_2178)"/>
<path d="M158.437 38.3952C156.827 39.4929 153.417 37.2953 150.821 33.4867C148.224 29.678 147.425 25.7007 149.035 24.603C150.645 23.5053 154.055 25.703 156.652 29.5116C159.248 33.3202 160.048 37.2976 158.437 38.3952Z" fill="url(#paint13_linear_0_2178)"/>
<path d="M159.114 35.2449C158.843 35.43 157.148 33.4176 155.33 30.7501C153.511 28.0826 152.257 25.7701 152.529 25.585C152.8 25.3999 154.495 27.4123 156.313 30.0798C158.132 32.7473 159.386 35.0599 159.114 35.2449Z" fill="#340409"/>
<path d="M107.394 72.6365C107.394 77.0921 103.782 80.704 99.3258 80.704C94.8701 80.704 91.2581 77.0921 91.2581 72.6365C91.2581 68.1809 94.8701 64.569 99.3258 64.569C103.782 64.569 107.394 68.1809 107.394 72.6365Z" fill="#6C0C14"/>
<path d="M37.6888 131.586C35.6634 133.331 31.6638 132.009 28.7556 128.633C25.8474 125.257 25.1317 121.106 27.1572 119.361C29.1826 117.616 33.1822 118.938 36.0904 122.314C38.9987 125.69 39.7143 129.841 37.6888 131.586Z" fill="#5B0C14"/>
<path d="M100.938 17.776C100.938 20.4493 97.326 22.6164 92.8703 22.6164C88.4146 22.6164 84.8025 20.4493 84.8025 17.776C84.8025 15.1026 88.4146 12.9355 92.8703 12.9355C97.326 12.9355 100.938 15.1026 100.938 17.776Z" fill="#8B0F19"/>
<path d="M148.55 119.849C150.308 121.864 149.011 125.871 145.654 128.801C142.296 131.73 138.15 132.472 136.392 130.457C134.635 128.443 135.931 124.435 139.289 121.506C142.646 118.577 146.793 117.835 148.55 119.849Z" fill="#440A11"/>
<defs>
<linearGradient id="paint0_linear_0_2178" x1="54.4506" y1="7.05381" x2="121.699" y2="160.797" gradientUnits="userSpaceOnUse">
<stop stop-color="#8D0F19"/>
<stop offset="1" stop-color="#23070C"/>
</linearGradient>
<linearGradient id="paint1_linear_0_2178" x1="37.6768" y1="52.7428" x2="48.0247" y2="76.3947" gradientUnits="userSpaceOnUse">
<stop stop-color="#1D0A0F"/>
<stop offset="1" stop-color="#7A121D"/>
</linearGradient>
<linearGradient id="paint2_linear_0_2178" x1="126.573" y1="22.309" x2="132.521" y2="30.744" gradientUnits="userSpaceOnUse">
<stop stop-color="#18090F"/>
<stop offset="1" stop-color="#A21421"/>
</linearGradient>
<linearGradient id="paint3_linear_0_2178" x1="156.305" y1="90.3084" x2="165.553" y2="93.5284" gradientUnits="userSpaceOnUse">
<stop stop-color="#270A11"/>
<stop offset="1" stop-color="#5D0B13"/>
</linearGradient>
<linearGradient id="paint4_linear_0_2178" x1="78.5961" y1="1.21678" x2="79.193" y2="6.4328" gradientUnits="userSpaceOnUse">
<stop stop-color="#360B11"/>
<stop offset="1" stop-color="#A1141F"/>
</linearGradient>
<linearGradient id="paint5_linear_0_2178" x1="87.2253" y1="120.474" x2="104.225" y2="151.923" gradientUnits="userSpaceOnUse">
<stop stop-color="#15090F"/>
<stop offset="1" stop-color="#530D16"/>
</linearGradient>
<linearGradient id="paint6_linear_0_2178" x1="10.5805" y1="125.883" x2="2.51288" y2="95.2258" gradientUnits="userSpaceOnUse">
<stop stop-color="#540B12"/>
<stop offset="1" stop-color="#660C14"/>
</linearGradient>
<linearGradient id="paint7_linear_0_2178" x1="13.3916" y1="125.027" x2="4.82787" y2="94.4886" gradientUnits="userSpaceOnUse">
<stop stop-color="#540B12"/>
<stop offset="1" stop-color="#660C14"/>
</linearGradient>
<linearGradient id="paint8_linear_0_2178" x1="104.167" y1="166.221" x2="71.9796" y2="167.856" gradientUnits="userSpaceOnUse">
<stop stop-color="#24070C"/>
<stop offset="1" stop-color="#2C080D"/>
</linearGradient>
<linearGradient id="paint9_linear_0_2178" x1="104.303" y1="164.288" x2="71.9991" y2="164.281" gradientUnits="userSpaceOnUse">
<stop stop-color="#24070C"/>
<stop offset="1" stop-color="#2C080D"/>
</linearGradient>
<linearGradient id="paint10_linear_0_2178" x1="159.027" y1="130.723" x2="170.322" y2="106.52" gradientUnits="userSpaceOnUse">
<stop stop-color="#2D080D"/>
<stop offset="1" stop-color="#38080E"/>
</linearGradient>
<linearGradient id="paint11_linear_0_2178" x1="156.67" y1="129.651" x2="167.871" y2="105.403" gradientUnits="userSpaceOnUse">
<stop stop-color="#2D080D"/>
<stop offset="1" stop-color="#38080E"/>
</linearGradient>
<linearGradient id="paint12_linear_0_2178" x1="149.345" y1="22.6163" x2="160.64" y2="37.1382" gradientUnits="userSpaceOnUse">
<stop stop-color="#6A0C15"/>
<stop offset="1" stop-color="#600B13"/>
</linearGradient>
<linearGradient id="paint13_linear_0_2178" x1="148.056" y1="23.4949" x2="158.979" y2="38.3283" gradientUnits="userSpaceOnUse">
<stop stop-color="#6A0C15"/>
<stop offset="1" stop-color="#600B13"/>
</linearGradient>
</defs>
</svg>
