<svg width="1920" height="1080" viewBox="0 0 1920 1080" fill="none" xmlns="http://www.w3.org/2000/svg">
<ellipse cx="76.3659" cy="49.5229" rx="0.628504" ry="0.628507" fill="white"/>
<circle cx="170.678" cy="49.5229" r="0.628507" fill="white"/>
<circle cx="264.99" cy="49.5229" r="0.628507" fill="white"/>
<ellipse cx="359.303" cy="49.5229" rx="0.628499" ry="0.628507" fill="white"/>
<circle cx="453.615" cy="49.5229" r="0.628507" fill="white"/>
<circle cx="547.928" cy="49.5229" r="0.628507" fill="white"/>
<ellipse cx="642.24" cy="49.5229" rx="0.628438" ry="0.628507" fill="white"/>
<ellipse cx="736.552" cy="49.5229" rx="0.62849" ry="0.628507" fill="white"/>
<ellipse cx="830.864" cy="49.5229" rx="0.628525" ry="0.628507" fill="white"/>
<ellipse cx="925.177" cy="49.5229" rx="0.628525" ry="0.628507" fill="white"/>
<circle cx="120.378" cy="112.398" r="0.628507" fill="white"/>
<ellipse cx="214.69" cy="112.398" rx="0.62852" ry="0.628507" fill="white"/>
<circle cx="309.003" cy="112.398" r="0.628507" fill="white"/>
<ellipse cx="403.315" cy="112.398" rx="0.62849" ry="0.628507" fill="white"/>
<ellipse cx="497.628" cy="112.398" rx="0.628525" ry="0.628507" fill="white"/>
<circle cx="591.94" cy="112.398" r="0.628507" fill="white"/>
<ellipse cx="686.252" cy="112.398" rx="0.628525" ry="0.628507" fill="white"/>
<ellipse cx="780.564" cy="112.398" rx="0.62849" ry="0.628507" fill="white"/>
<ellipse cx="874.877" cy="112.398" rx="0.628525" ry="0.628507" fill="white"/>
<ellipse cx="969.189" cy="112.398" rx="0.628525" ry="0.628507" fill="white"/>
<ellipse cx="101.516" cy="175.273" rx="0.628508" ry="0.628507" fill="white"/>
<circle cx="195.828" cy="175.273" r="0.628507" fill="white"/>
<circle cx="290.14" cy="175.273" r="0.628507" fill="white"/>
<ellipse cx="384.453" cy="175.273" rx="0.628525" ry="0.628507" fill="white"/>
<circle cx="478.765" cy="175.273" r="0.628507" fill="white"/>
<circle cx="573.077" cy="175.273" r="0.628507" fill="white"/>
<ellipse cx="667.389" cy="175.273" rx="0.62849" ry="0.628507" fill="white"/>
<ellipse cx="761.702" cy="175.273" rx="0.628525" ry="0.628507" fill="white"/>
<ellipse cx="856.014" cy="175.273" rx="0.628525" ry="0.628507" fill="white"/>
<ellipse cx="950.326" cy="175.273" rx="0.62849" ry="0.628507" fill="white"/>
<circle cx="120.378" cy="238.147" r="0.628507" fill="white"/>
<ellipse cx="214.69" cy="238.147" rx="0.62852" ry="0.628507" fill="white"/>
<circle cx="309.003" cy="238.147" r="0.628507" fill="white"/>
<ellipse cx="403.315" cy="238.147" rx="0.62849" ry="0.628507" fill="white"/>
<ellipse cx="497.628" cy="238.147" rx="0.628525" ry="0.628507" fill="white"/>
<circle cx="591.94" cy="238.147" r="0.628507" fill="white"/>
<ellipse cx="686.252" cy="238.147" rx="0.628525" ry="0.628507" fill="white"/>
<ellipse cx="780.564" cy="238.147" rx="0.62849" ry="0.628507" fill="white"/>
<ellipse cx="874.877" cy="238.147" rx="0.628525" ry="0.628507" fill="white"/>
<ellipse cx="969.189" cy="238.147" rx="0.628525" ry="0.628507" fill="white"/>
<ellipse cx="88.9411" cy="302.279" rx="0.628505" ry="0.628507" fill="white"/>
<circle cx="183.253" cy="302.279" r="0.628507" fill="white"/>
<ellipse cx="277.566" cy="302.279" rx="0.628499" ry="0.628507" fill="white"/>
<ellipse cx="371.878" cy="302.279" rx="0.628533" ry="0.628507" fill="white"/>
<circle cx="466.19" cy="302.279" r="0.628507" fill="white"/>
<circle cx="560.502" cy="302.279" r="0.628507" fill="white"/>
<ellipse cx="654.814" cy="302.279" rx="0.628559" ry="0.628507" fill="white"/>
<ellipse cx="749.127" cy="302.279" rx="0.62849" ry="0.628507" fill="white"/>
<ellipse cx="843.439" cy="302.279" rx="0.628525" ry="0.628507" fill="white"/>
<ellipse cx="937.751" cy="302.279" rx="0.62849" ry="0.628507" fill="white"/>
<ellipse cx="126.666" cy="365.154" rx="0.628505" ry="0.628507" fill="white"/>
<circle cx="220.978" cy="365.154" r="0.628507" fill="white"/>
<ellipse cx="315.291" cy="365.154" rx="0.628533" ry="0.628507" fill="white"/>
<circle cx="409.602" cy="365.154" r="0.628507" fill="white"/>
<circle cx="503.915" cy="365.154" r="0.628507" fill="white"/>
<ellipse cx="598.227" cy="365.154" rx="0.628559" ry="0.628507" fill="white"/>
<ellipse cx="692.54" cy="365.154" rx="0.628421" ry="0.628507" fill="white"/>
<ellipse cx="786.852" cy="365.154" rx="0.628525" ry="0.628507" fill="white"/>
<ellipse cx="881.164" cy="365.154" rx="0.62849" ry="0.628507" fill="white"/>
<ellipse cx="114.091" cy="428.029" rx="0.628505" ry="0.628507" fill="white"/>
<ellipse cx="208.403" cy="428.029" rx="0.62849" ry="0.628507" fill="white"/>
<circle cx="302.715" cy="428.029" r="0.628507" fill="white"/>
<ellipse cx="397.028" cy="428.029" rx="0.628542" ry="0.628507" fill="white"/>
<circle cx="491.34" cy="428.029" r="0.628507" fill="white"/>
<ellipse cx="585.652" cy="428.029" rx="0.628438" ry="0.628507" fill="white"/>
<ellipse cx="679.964" cy="428.029" rx="0.628559" ry="0.628507" fill="white"/>
<ellipse cx="774.276" cy="428.029" rx="0.628525" ry="0.628507" fill="white"/>
<ellipse cx="868.589" cy="428.029" rx="0.628525" ry="0.628507" fill="white"/>
<ellipse cx="962.901" cy="428.029" rx="0.62849" ry="0.628507" fill="white"/>
<ellipse cx="151.816" cy="490.904" rx="0.628512" ry="0.62849" fill="white"/>
<ellipse cx="246.128" cy="490.904" rx="0.628507" ry="0.62849" fill="white"/>
<ellipse cx="340.44" cy="490.904" rx="0.628533" ry="0.62849" fill="white"/>
<ellipse cx="434.753" cy="490.904" rx="0.628507" ry="0.62849" fill="white"/>
<circle cx="529.065" cy="490.904" r="0.62849" fill="white"/>
<ellipse cx="623.377" cy="490.904" rx="0.628559" ry="0.62849" fill="white"/>
<ellipse cx="717.69" cy="490.904" rx="0.628525" ry="0.62849" fill="white"/>
<ellipse cx="812.002" cy="490.904" rx="0.628525" ry="0.62849" fill="white"/>
<circle cx="906.314" cy="490.904" r="0.62849" fill="white"/>
<ellipse cx="1000.63" cy="490.904" rx="0.628732" ry="0.62849" fill="white"/>
<ellipse cx="101.516" cy="553.779" rx="0.628508" ry="0.62849" fill="white"/>
<ellipse cx="195.828" cy="553.779" rx="0.628507" ry="0.62849" fill="white"/>
<ellipse cx="290.14" cy="553.779" rx="0.628507" ry="0.62849" fill="white"/>
<ellipse cx="384.453" cy="553.779" rx="0.628525" ry="0.62849" fill="white"/>
<ellipse cx="478.765" cy="553.779" rx="0.628507" ry="0.62849" fill="white"/>
<ellipse cx="573.077" cy="553.779" rx="0.628507" ry="0.62849" fill="white"/>
<circle cx="667.389" cy="553.779" r="0.62849" fill="white"/>
<ellipse cx="761.702" cy="553.779" rx="0.628525" ry="0.62849" fill="white"/>
<ellipse cx="856.014" cy="553.779" rx="0.628525" ry="0.62849" fill="white"/>
<circle cx="950.326" cy="553.779" r="0.62849" fill="white"/>
<ellipse cx="120.378" cy="616.654" rx="0.628507" ry="0.62849" fill="white"/>
<ellipse cx="214.69" cy="616.654" rx="0.62852" ry="0.62849" fill="white"/>
<ellipse cx="309.003" cy="616.654" rx="0.628507" ry="0.62849" fill="white"/>
<circle cx="403.315" cy="616.654" r="0.62849" fill="white"/>
<ellipse cx="497.628" cy="616.654" rx="0.628525" ry="0.62849" fill="white"/>
<ellipse cx="591.94" cy="616.654" rx="0.628507" ry="0.62849" fill="white"/>
<ellipse cx="686.252" cy="616.654" rx="0.628525" ry="0.62849" fill="white"/>
<circle cx="780.564" cy="616.654" r="0.62849" fill="white"/>
<ellipse cx="874.877" cy="616.654" rx="0.628525" ry="0.62849" fill="white"/>
<ellipse cx="969.189" cy="616.654" rx="0.628525" ry="0.62849" fill="white"/>
<ellipse cx="164.391" cy="685.816" rx="0.628503" ry="0.62849" fill="white"/>
<ellipse cx="258.703" cy="685.816" rx="0.628507" ry="0.62849" fill="white"/>
<ellipse cx="353.015" cy="685.816" rx="0.628499" ry="0.62849" fill="white"/>
<ellipse cx="447.327" cy="685.816" rx="0.628507" ry="0.62849" fill="white"/>
<ellipse cx="541.64" cy="685.816" rx="0.628559" ry="0.62849" fill="white"/>
<ellipse cx="635.952" cy="685.816" rx="0.628438" ry="0.62849" fill="white"/>
<ellipse cx="730.264" cy="685.816" rx="0.628525" ry="0.62849" fill="white"/>
<circle cx="824.576" cy="685.816" r="0.62849" fill="white"/>
<circle cx="918.889" cy="685.816" r="0.62849" fill="white"/>
<ellipse cx="1013.2" cy="685.816" rx="0.628525" ry="0.62849" fill="white"/>
<ellipse cx="126.666" cy="754.978" rx="0.628505" ry="0.628525" fill="white"/>
<ellipse cx="220.978" cy="754.978" rx="0.628507" ry="0.628525" fill="white"/>
<ellipse cx="315.291" cy="754.978" rx="0.628533" ry="0.628525" fill="white"/>
<ellipse cx="409.602" cy="754.978" rx="0.628507" ry="0.628525" fill="white"/>
<ellipse cx="503.915" cy="754.978" rx="0.628507" ry="0.628525" fill="white"/>
<ellipse cx="598.227" cy="754.978" rx="0.628559" ry="0.628525" fill="white"/>
<ellipse cx="692.54" cy="754.978" rx="0.628421" ry="0.628525" fill="white"/>
<circle cx="786.852" cy="754.978" r="0.628525" fill="white"/>
<ellipse cx="881.164" cy="754.978" rx="0.62849" ry="0.628525" fill="white"/>
<ellipse cx="975.476" cy="754.978" rx="0.62849" ry="0.628525" fill="white"/>
<ellipse cx="176.966" cy="822.883" rx="0.628503" ry="0.628525" fill="white"/>
<ellipse cx="271.278" cy="822.883" rx="0.628499" ry="0.628525" fill="white"/>
<ellipse cx="365.59" cy="822.883" rx="0.628533" ry="0.628525" fill="white"/>
<ellipse cx="459.903" cy="822.883" rx="0.62849" ry="0.628525" fill="white"/>
<ellipse cx="554.214" cy="822.883" rx="0.62849" ry="0.628525" fill="white"/>
<ellipse cx="648.528" cy="822.883" rx="0.628507" ry="0.628525" fill="white"/>
<circle cx="742.839" cy="822.883" r="0.628525" fill="white"/>
<ellipse cx="837.151" cy="822.883" rx="0.62849" ry="0.628525" fill="white"/>
<circle cx="931.464" cy="822.883" r="0.628525" fill="white"/>
<ellipse cx="139.241" cy="892.046" rx="0.628505" ry="0.628525" fill="white"/>
<ellipse cx="233.553" cy="892.046" rx="0.628507" ry="0.628525" fill="white"/>
<ellipse cx="327.865" cy="892.046" rx="0.628516" ry="0.628525" fill="white"/>
<ellipse cx="422.178" cy="892.046" rx="0.628507" ry="0.628525" fill="white"/>
<ellipse cx="516.49" cy="892.046" rx="0.62849" ry="0.628525" fill="white"/>
<ellipse cx="610.802" cy="892.046" rx="0.62849" ry="0.628525" fill="white"/>
<circle cx="705.115" cy="892.046" r="0.628525" fill="white"/>
<circle cx="799.427" cy="892.046" r="0.628525" fill="white"/>
<ellipse cx="893.739" cy="892.046" rx="0.62849" ry="0.628525" fill="white"/>
<circle cx="988.052" cy="892.046" r="0.628525" fill="white"/>
<ellipse cx="101.516" cy="961.208" rx="0.628508" ry="0.62849" fill="white"/>
<ellipse cx="195.828" cy="961.208" rx="0.628507" ry="0.62849" fill="white"/>
<ellipse cx="290.14" cy="961.208" rx="0.628507" ry="0.62849" fill="white"/>
<ellipse cx="384.453" cy="961.208" rx="0.628525" ry="0.62849" fill="white"/>
<ellipse cx="478.765" cy="961.208" rx="0.628507" ry="0.62849" fill="white"/>
<ellipse cx="573.077" cy="961.208" rx="0.628507" ry="0.62849" fill="white"/>
<circle cx="667.389" cy="961.208" r="0.62849" fill="white"/>
<ellipse cx="761.702" cy="961.208" rx="0.628525" ry="0.62849" fill="white"/>
<ellipse cx="856.014" cy="961.208" rx="0.628525" ry="0.62849" fill="white"/>
<circle cx="950.326" cy="961.208" r="0.62849" fill="white"/>
<ellipse cx="139.241" cy="1030.37" rx="0.628505" ry="0.62849" fill="white"/>
<ellipse cx="233.553" cy="1030.37" rx="0.628507" ry="0.62849" fill="white"/>
<ellipse cx="327.865" cy="1030.37" rx="0.628516" ry="0.62849" fill="white"/>
<ellipse cx="422.178" cy="1030.37" rx="0.628507" ry="0.62849" fill="white"/>
<circle cx="516.49" cy="1030.37" r="0.62849" fill="white"/>
<circle cx="610.802" cy="1030.37" r="0.62849" fill="white"/>
<ellipse cx="705.115" cy="1030.37" rx="0.628525" ry="0.62849" fill="white"/>
<ellipse cx="799.427" cy="1030.37" rx="0.628525" ry="0.62849" fill="white"/>
<circle cx="893.739" cy="1030.37" r="0.62849" fill="white"/>
<ellipse cx="988.052" cy="1030.37" rx="0.628525" ry="0.62849" fill="white"/>
<ellipse cx="107.803" cy="55.8103" rx="0.628506" ry="0.628507" fill="white"/>
<circle cx="202.115" cy="55.8103" r="0.628507" fill="white"/>
<ellipse cx="296.428" cy="55.8103" rx="0.628499" ry="0.628507" fill="white"/>
<ellipse cx="390.74" cy="55.8103" rx="0.628473" ry="0.628507" fill="white"/>
<circle cx="485.052" cy="55.8103" r="0.628507" fill="white"/>
<ellipse cx="579.364" cy="55.8103" rx="0.628438" ry="0.628507" fill="white"/>
<ellipse cx="673.676" cy="55.8103" rx="0.628525" ry="0.628507" fill="white"/>
<ellipse cx="767.989" cy="55.8103" rx="0.62849" ry="0.628507" fill="white"/>
<ellipse cx="862.302" cy="55.8103" rx="0.62849" ry="0.628507" fill="white"/>
<ellipse cx="956.614" cy="55.8103" rx="0.628525" ry="0.628507" fill="white"/>
<ellipse cx="151.816" cy="118.685" rx="0.628512" ry="0.628507" fill="white"/>
<circle cx="246.128" cy="118.685" r="0.628507" fill="white"/>
<ellipse cx="340.44" cy="118.685" rx="0.628533" ry="0.628507" fill="white"/>
<circle cx="434.753" cy="118.685" r="0.628507" fill="white"/>
<ellipse cx="529.065" cy="118.685" rx="0.62849" ry="0.628507" fill="white"/>
<ellipse cx="623.377" cy="118.685" rx="0.628559" ry="0.628507" fill="white"/>
<ellipse cx="717.689" cy="118.685" rx="0.628525" ry="0.628507" fill="white"/>
<ellipse cx="812.001" cy="118.685" rx="0.628525" ry="0.628507" fill="white"/>
<ellipse cx="906.314" cy="118.685" rx="0.62849" ry="0.628507" fill="white"/>
<ellipse cx="1000.63" cy="118.685" rx="0.628732" ry="0.628507" fill="white"/>
<circle cx="132.953" cy="181.56" r="0.628507" fill="white"/>
<circle cx="227.266" cy="181.56" r="0.628507" fill="white"/>
<ellipse cx="321.578" cy="181.56" rx="0.628481" ry="0.628507" fill="white"/>
<ellipse cx="415.89" cy="181.56" rx="0.62849" ry="0.628507" fill="white"/>
<circle cx="510.202" cy="181.56" r="0.628507" fill="white"/>
<circle cx="604.514" cy="181.56" r="0.628507" fill="white"/>
<ellipse cx="698.827" cy="181.56" rx="0.628456" ry="0.628507" fill="white"/>
<ellipse cx="793.139" cy="181.56" rx="0.62849" ry="0.628507" fill="white"/>
<ellipse cx="887.451" cy="181.56" rx="0.628525" ry="0.628507" fill="white"/>
<ellipse cx="981.764" cy="181.56" rx="0.628525" ry="0.628507" fill="white"/>
<ellipse cx="151.816" cy="244.435" rx="0.628512" ry="0.628507" fill="white"/>
<circle cx="246.128" cy="244.435" r="0.628507" fill="white"/>
<ellipse cx="340.44" cy="244.435" rx="0.628533" ry="0.628507" fill="white"/>
<circle cx="434.753" cy="244.435" r="0.628507" fill="white"/>
<ellipse cx="529.065" cy="244.435" rx="0.62849" ry="0.628507" fill="white"/>
<ellipse cx="623.377" cy="244.435" rx="0.628559" ry="0.628507" fill="white"/>
<ellipse cx="717.689" cy="244.435" rx="0.628525" ry="0.628507" fill="white"/>
<ellipse cx="812.001" cy="244.435" rx="0.628525" ry="0.628507" fill="white"/>
<ellipse cx="906.314" cy="244.435" rx="0.62849" ry="0.628507" fill="white"/>
<ellipse cx="1000.63" cy="244.435" rx="0.628732" ry="0.628507" fill="white"/>
<circle cx="120.379" cy="308.567" r="0.628507" fill="white"/>
<ellipse cx="214.69" cy="308.567" rx="0.62852" ry="0.628507" fill="white"/>
<circle cx="309.003" cy="308.567" r="0.628507" fill="white"/>
<ellipse cx="403.315" cy="308.567" rx="0.62849" ry="0.628507" fill="white"/>
<ellipse cx="497.627" cy="308.567" rx="0.628525" ry="0.628507" fill="white"/>
<circle cx="591.94" cy="308.567" r="0.628507" fill="white"/>
<ellipse cx="686.252" cy="308.567" rx="0.628525" ry="0.628507" fill="white"/>
<ellipse cx="780.564" cy="308.567" rx="0.62849" ry="0.628507" fill="white"/>
<ellipse cx="874.876" cy="308.567" rx="0.628525" ry="0.628507" fill="white"/>
<ellipse cx="969.188" cy="308.567" rx="0.628525" ry="0.628507" fill="white"/>
<circle cx="158.103" cy="371.442" r="0.628507" fill="white"/>
<circle cx="252.415" cy="371.442" r="0.628507" fill="white"/>
<ellipse cx="346.728" cy="371.442" rx="0.628499" ry="0.628507" fill="white"/>
<ellipse cx="441.04" cy="371.442" rx="0.628525" ry="0.628507" fill="white"/>
<circle cx="535.352" cy="371.442" r="0.628507" fill="white"/>
<circle cx="629.664" cy="371.442" r="0.628507" fill="white"/>
<ellipse cx="723.977" cy="371.442" rx="0.62849" ry="0.628507" fill="white"/>
<ellipse cx="818.289" cy="371.442" rx="0.628525" ry="0.628507" fill="white"/>
<ellipse cx="912.601" cy="371.442" rx="0.628525" ry="0.628507" fill="white"/>
<ellipse cx="145.528" cy="434.317" rx="0.628499" ry="0.628507" fill="white"/>
<ellipse cx="239.84" cy="434.317" rx="0.628516" ry="0.628507" fill="white"/>
<ellipse cx="334.153" cy="434.317" rx="0.628473" ry="0.628507" fill="white"/>
<circle cx="428.465" cy="434.317" r="0.628507" fill="white"/>
<circle cx="522.777" cy="434.317" r="0.628507" fill="white"/>
<circle cx="617.09" cy="434.317" r="0.628507" fill="white"/>
<ellipse cx="711.401" cy="434.317" rx="0.628559" ry="0.628507" fill="white"/>
<ellipse cx="805.714" cy="434.317" rx="0.62849" ry="0.628507" fill="white"/>
<ellipse cx="900.026" cy="434.317" rx="0.628525" ry="0.628507" fill="white"/>
<ellipse cx="994.338" cy="434.317" rx="0.628386" ry="0.628507" fill="white"/>
<ellipse cx="183.253" cy="497.191" rx="0.628507" ry="0.62849" fill="white"/>
<ellipse cx="277.565" cy="497.191" rx="0.628499" ry="0.62849" fill="white"/>
<ellipse cx="371.878" cy="497.191" rx="0.628533" ry="0.62849" fill="white"/>
<ellipse cx="466.189" cy="497.191" rx="0.628507" ry="0.62849" fill="white"/>
<ellipse cx="560.502" cy="497.191" rx="0.628507" ry="0.62849" fill="white"/>
<ellipse cx="654.814" cy="497.191" rx="0.628559" ry="0.62849" fill="white"/>
<circle cx="749.127" cy="497.191" r="0.62849" fill="white"/>
<ellipse cx="843.439" cy="497.191" rx="0.628525" ry="0.62849" fill="white"/>
<circle cx="937.751" cy="497.191" r="0.62849" fill="white"/>
<ellipse cx="1032.06" cy="495.934" rx="0.628352" ry="0.62849" fill="white"/>
<ellipse cx="132.953" cy="560.066" rx="0.628507" ry="0.628525" fill="white"/>
<ellipse cx="227.266" cy="560.066" rx="0.628507" ry="0.628525" fill="white"/>
<ellipse cx="321.578" cy="560.066" rx="0.628481" ry="0.628525" fill="white"/>
<ellipse cx="415.89" cy="560.066" rx="0.62849" ry="0.628525" fill="white"/>
<ellipse cx="510.202" cy="560.066" rx="0.628507" ry="0.628525" fill="white"/>
<ellipse cx="604.514" cy="560.066" rx="0.628507" ry="0.628525" fill="white"/>
<ellipse cx="698.827" cy="560.066" rx="0.628456" ry="0.628525" fill="white"/>
<ellipse cx="793.139" cy="560.066" rx="0.62849" ry="0.628525" fill="white"/>
<circle cx="887.451" cy="560.066" r="0.628525" fill="white"/>
<circle cx="981.764" cy="560.066" r="0.628525" fill="white"/>
<ellipse cx="151.816" cy="622.941" rx="0.628512" ry="0.628525" fill="white"/>
<ellipse cx="246.128" cy="622.941" rx="0.628507" ry="0.628525" fill="white"/>
<ellipse cx="340.44" cy="622.941" rx="0.628533" ry="0.628525" fill="white"/>
<ellipse cx="434.753" cy="622.941" rx="0.628507" ry="0.628525" fill="white"/>
<ellipse cx="529.065" cy="622.941" rx="0.62849" ry="0.628525" fill="white"/>
<ellipse cx="623.377" cy="622.941" rx="0.628559" ry="0.628525" fill="white"/>
<circle cx="717.689" cy="622.941" r="0.628525" fill="white"/>
<circle cx="812.001" cy="622.941" r="0.628525" fill="white"/>
<ellipse cx="906.314" cy="622.941" rx="0.62849" ry="0.628525" fill="white"/>
<ellipse cx="1000.63" cy="622.941" rx="0.628732" ry="0.628525" fill="white"/>
<ellipse cx="195.828" cy="692.103" rx="0.628507" ry="0.62849" fill="white"/>
<ellipse cx="290.14" cy="692.103" rx="0.628507" ry="0.62849" fill="white"/>
<ellipse cx="384.452" cy="692.103" rx="0.628525" ry="0.62849" fill="white"/>
<ellipse cx="478.765" cy="692.103" rx="0.628507" ry="0.62849" fill="white"/>
<ellipse cx="573.077" cy="692.103" rx="0.628507" ry="0.62849" fill="white"/>
<circle cx="667.389" cy="692.103" r="0.62849" fill="white"/>
<ellipse cx="761.702" cy="692.103" rx="0.628525" ry="0.62849" fill="white"/>
<ellipse cx="856.014" cy="692.103" rx="0.628525" ry="0.62849" fill="white"/>
<circle cx="950.326" cy="692.103" r="0.62849" fill="white"/>
<circle cx="1044.64" cy="690.846" r="0.628525" fill="white"/>
<ellipse cx="158.103" cy="761.266" rx="0.628507" ry="0.62849" fill="white"/>
<ellipse cx="252.415" cy="761.266" rx="0.628507" ry="0.62849" fill="white"/>
<ellipse cx="346.728" cy="761.266" rx="0.628499" ry="0.62849" fill="white"/>
<ellipse cx="441.04" cy="761.266" rx="0.628525" ry="0.62849" fill="white"/>
<ellipse cx="535.352" cy="761.266" rx="0.628507" ry="0.62849" fill="white"/>
<ellipse cx="629.664" cy="761.266" rx="0.628507" ry="0.62849" fill="white"/>
<circle cx="723.977" cy="761.266" r="0.62849" fill="white"/>
<ellipse cx="818.289" cy="761.266" rx="0.628525" ry="0.62849" fill="white"/>
<ellipse cx="912.601" cy="761.266" rx="0.628525" ry="0.62849" fill="white"/>
<ellipse cx="1006.91" cy="761.266" rx="0.628525" ry="0.62849" fill="white"/>
<circle cx="208.403" cy="829.171" r="0.62849" fill="white"/>
<ellipse cx="302.715" cy="829.171" rx="0.628507" ry="0.62849" fill="white"/>
<ellipse cx="397.027" cy="829.171" rx="0.628542" ry="0.62849" fill="white"/>
<ellipse cx="491.34" cy="829.171" rx="0.628507" ry="0.62849" fill="white"/>
<ellipse cx="585.652" cy="829.171" rx="0.628438" ry="0.62849" fill="white"/>
<ellipse cx="679.964" cy="829.171" rx="0.628559" ry="0.62849" fill="white"/>
<ellipse cx="774.276" cy="829.171" rx="0.628525" ry="0.62849" fill="white"/>
<ellipse cx="868.589" cy="829.171" rx="0.628525" ry="0.62849" fill="white"/>
<circle cx="962.901" cy="829.171" r="0.62849" fill="white"/>
<ellipse cx="170.678" cy="898.333" rx="0.628507" ry="0.628525" fill="white"/>
<ellipse cx="264.991" cy="898.333" rx="0.628507" ry="0.628525" fill="white"/>
<ellipse cx="359.303" cy="898.333" rx="0.628499" ry="0.628525" fill="white"/>
<ellipse cx="453.615" cy="898.333" rx="0.628507" ry="0.628525" fill="white"/>
<ellipse cx="547.927" cy="898.333" rx="0.628507" ry="0.628525" fill="white"/>
<ellipse cx="642.239" cy="898.333" rx="0.628438" ry="0.628525" fill="white"/>
<ellipse cx="736.551" cy="898.333" rx="0.62849" ry="0.628525" fill="white"/>
<circle cx="830.863" cy="898.333" r="0.628525" fill="white"/>
<circle cx="925.176" cy="898.333" r="0.628525" fill="white"/>
<circle cx="1019.49" cy="898.333" r="0.628525" fill="white"/>
<ellipse cx="132.953" cy="967.495" rx="0.628507" ry="0.628525" fill="white"/>
<ellipse cx="227.266" cy="967.495" rx="0.628507" ry="0.628525" fill="white"/>
<ellipse cx="321.578" cy="967.495" rx="0.628481" ry="0.628525" fill="white"/>
<ellipse cx="415.89" cy="967.495" rx="0.62849" ry="0.628525" fill="white"/>
<ellipse cx="510.202" cy="967.495" rx="0.628507" ry="0.628525" fill="white"/>
<ellipse cx="604.514" cy="967.495" rx="0.628507" ry="0.628525" fill="white"/>
<ellipse cx="698.827" cy="967.495" rx="0.628456" ry="0.628525" fill="white"/>
<ellipse cx="793.139" cy="967.495" rx="0.62849" ry="0.628525" fill="white"/>
<circle cx="887.451" cy="967.495" r="0.628525" fill="white"/>
<circle cx="981.764" cy="967.495" r="0.628525" fill="white"/>
<ellipse cx="170.678" cy="1036.66" rx="0.628507" ry="0.62849" fill="white"/>
<ellipse cx="264.991" cy="1036.66" rx="0.628507" ry="0.62849" fill="white"/>
<ellipse cx="359.303" cy="1036.66" rx="0.628499" ry="0.62849" fill="white"/>
<ellipse cx="453.615" cy="1036.66" rx="0.628507" ry="0.62849" fill="white"/>
<ellipse cx="547.927" cy="1036.66" rx="0.628507" ry="0.62849" fill="white"/>
<ellipse cx="642.239" cy="1036.66" rx="0.628438" ry="0.62849" fill="white"/>
<circle cx="736.551" cy="1036.66" r="0.62849" fill="white"/>
<ellipse cx="830.863" cy="1036.66" rx="0.628525" ry="0.62849" fill="white"/>
<ellipse cx="925.176" cy="1036.66" rx="0.628525" ry="0.62849" fill="white"/>
<ellipse cx="1019.49" cy="1036.66" rx="0.628525" ry="0.62849" fill="white"/>
<ellipse cx="47.4435" cy="18.0854" rx="0.628508" ry="0.628507" fill="white"/>
<ellipse cx="141.756" cy="18.0854" rx="0.628512" ry="0.628507" fill="white"/>
<ellipse cx="236.068" cy="18.0854" rx="0.62849" ry="0.628507" fill="white"/>
<ellipse cx="330.38" cy="18.0854" rx="0.628542" ry="0.628507" fill="white"/>
<circle cx="424.692" cy="18.0854" r="0.628507" fill="white"/>
<ellipse cx="519.005" cy="18.0854" rx="0.62849" ry="0.628507" fill="white"/>
<ellipse cx="613.317" cy="18.0854" rx="0.628525" ry="0.628507" fill="white"/>
<ellipse cx="707.629" cy="18.0854" rx="0.628559" ry="0.628507" fill="white"/>
<ellipse cx="801.942" cy="18.0854" rx="0.62849" ry="0.628507" fill="white"/>
<ellipse cx="896.254" cy="18.0854" rx="0.628525" ry="0.628507" fill="white"/>
<ellipse cx="41.1561" cy="80.9603" rx="0.628505" ry="0.628507" fill="white"/>
<ellipse cx="135.468" cy="80.9603" rx="0.628505" ry="0.628507" fill="white"/>
<ellipse cx="229.78" cy="80.9603" rx="0.628525" ry="0.628507" fill="white"/>
<ellipse cx="324.093" cy="80.9603" rx="0.628481" ry="0.628507" fill="white"/>
<circle cx="418.405" cy="80.9603" r="0.628507" fill="white"/>
<circle cx="512.717" cy="80.9603" r="0.628507" fill="white"/>
<ellipse cx="607.029" cy="80.9603" rx="0.628559" ry="0.628507" fill="white"/>
<ellipse cx="701.341" cy="80.9603" rx="0.628525" ry="0.628507" fill="white"/>
<ellipse cx="795.654" cy="80.9603" rx="0.62849" ry="0.628507" fill="white"/>
<ellipse cx="889.966" cy="80.9603" rx="0.62849" ry="0.628507" fill="white"/>
<ellipse cx="85.1687" cy="143.835" rx="0.628505" ry="0.628507" fill="white"/>
<circle cx="179.481" cy="143.835" r="0.628507" fill="white"/>
<circle cx="273.793" cy="143.835" r="0.628507" fill="white"/>
<ellipse cx="368.105" cy="143.835" rx="0.628481" ry="0.628507" fill="white"/>
<ellipse cx="462.417" cy="143.835" rx="0.62849" ry="0.628507" fill="white"/>
<ellipse cx="556.729" cy="143.835" rx="0.628525" ry="0.628507" fill="white"/>
<ellipse cx="651.042" cy="143.835" rx="0.628559" ry="0.628507" fill="white"/>
<ellipse cx="745.354" cy="143.835" rx="0.62849" ry="0.628507" fill="white"/>
<ellipse cx="839.666" cy="143.835" rx="0.628525" ry="0.628507" fill="white"/>
<ellipse cx="933.978" cy="143.835" rx="0.62849" ry="0.628507" fill="white"/>
<ellipse cx="66.306" cy="206.71" rx="0.628506" ry="0.628507" fill="white"/>
<circle cx="160.618" cy="206.71" r="0.628507" fill="white"/>
<circle cx="254.931" cy="206.71" r="0.628507" fill="white"/>
<ellipse cx="349.243" cy="206.71" rx="0.628499" ry="0.628507" fill="white"/>
<circle cx="443.555" cy="206.71" r="0.628507" fill="white"/>
<ellipse cx="537.867" cy="206.71" rx="0.628559" ry="0.628507" fill="white"/>
<circle cx="632.179" cy="206.71" r="0.628507" fill="white"/>
<ellipse cx="726.492" cy="206.71" rx="0.628525" ry="0.628507" fill="white"/>
<ellipse cx="820.804" cy="206.71" rx="0.62849" ry="0.628507" fill="white"/>
<ellipse cx="915.116" cy="206.71" rx="0.62849" ry="0.628507" fill="white"/>
<ellipse cx="85.1687" cy="269.585" rx="0.628505" ry="0.628507" fill="white"/>
<circle cx="179.481" cy="269.585" r="0.628507" fill="white"/>
<circle cx="273.793" cy="269.585" r="0.628507" fill="white"/>
<ellipse cx="368.105" cy="269.585" rx="0.628481" ry="0.628507" fill="white"/>
<ellipse cx="462.417" cy="269.585" rx="0.62849" ry="0.628507" fill="white"/>
<ellipse cx="556.729" cy="269.585" rx="0.628525" ry="0.628507" fill="white"/>
<ellipse cx="651.042" cy="269.585" rx="0.628559" ry="0.628507" fill="white"/>
<ellipse cx="745.354" cy="269.585" rx="0.62849" ry="0.628507" fill="white"/>
<ellipse cx="839.666" cy="269.585" rx="0.628525" ry="0.628507" fill="white"/>
<ellipse cx="933.978" cy="269.585" rx="0.62849" ry="0.628507" fill="white"/>
<ellipse cx="53.7313" cy="333.717" rx="0.628505" ry="0.628507" fill="white"/>
<ellipse cx="148.043" cy="333.717" rx="0.628497" ry="0.628507" fill="white"/>
<circle cx="242.355" cy="333.717" r="0.628507" fill="white"/>
<circle cx="336.668" cy="333.717" r="0.628507" fill="white"/>
<circle cx="430.98" cy="333.717" r="0.628507" fill="white"/>
<circle cx="525.292" cy="333.717" r="0.628507" fill="white"/>
<ellipse cx="619.605" cy="333.717" rx="0.628438" ry="0.628507" fill="white"/>
<ellipse cx="713.917" cy="333.717" rx="0.62849" ry="0.628507" fill="white"/>
<ellipse cx="808.229" cy="333.717" rx="0.62849" ry="0.628507" fill="white"/>
<ellipse cx="902.541" cy="333.717" rx="0.628525" ry="0.628507" fill="white"/>
<ellipse cx="91.4558" cy="396.592" rx="0.628505" ry="0.628507" fill="white"/>
<circle cx="185.768" cy="396.592" r="0.628507" fill="white"/>
<circle cx="280.081" cy="396.592" r="0.628507" fill="white"/>
<circle cx="374.393" cy="396.592" r="0.628507" fill="white"/>
<circle cx="468.705" cy="396.592" r="0.628507" fill="white"/>
<ellipse cx="563.017" cy="396.592" rx="0.628438" ry="0.628507" fill="white"/>
<circle cx="657.329" cy="396.592" r="0.628507" fill="white"/>
<ellipse cx="751.641" cy="396.592" rx="0.62849" ry="0.628507" fill="white"/>
<ellipse cx="845.954" cy="396.592" rx="0.628525" ry="0.628507" fill="white"/>
<ellipse cx="78.8811" cy="459.466" rx="0.628506" ry="0.62849" fill="white"/>
<ellipse cx="173.193" cy="459.466" rx="0.628507" ry="0.62849" fill="white"/>
<ellipse cx="267.505" cy="459.466" rx="0.628507" ry="0.62849" fill="white"/>
<ellipse cx="361.818" cy="459.466" rx="0.628481" ry="0.62849" fill="white"/>
<ellipse cx="456.13" cy="459.466" rx="0.628507" ry="0.62849" fill="white"/>
<ellipse cx="550.442" cy="459.466" rx="0.628559" ry="0.62849" fill="white"/>
<ellipse cx="644.754" cy="459.466" rx="0.628507" ry="0.62849" fill="white"/>
<circle cx="739.067" cy="459.466" r="0.62849" fill="white"/>
<circle cx="833.378" cy="459.466" r="0.62849" fill="white"/>
<ellipse cx="927.691" cy="459.466" rx="0.628525" ry="0.62849" fill="white"/>
<ellipse cx="116.606" cy="522.341" rx="0.628506" ry="0.628525" fill="white"/>
<ellipse cx="210.918" cy="522.341" rx="0.628507" ry="0.628525" fill="white"/>
<ellipse cx="305.23" cy="522.341" rx="0.628507" ry="0.628525" fill="white"/>
<ellipse cx="399.542" cy="522.341" rx="0.628507" ry="0.628525" fill="white"/>
<ellipse cx="493.855" cy="522.341" rx="0.628507" ry="0.628525" fill="white"/>
<ellipse cx="588.167" cy="522.341" rx="0.628507" ry="0.628525" fill="white"/>
<ellipse cx="682.479" cy="522.341" rx="0.628421" ry="0.628525" fill="white"/>
<ellipse cx="776.791" cy="522.341" rx="0.62849" ry="0.628525" fill="white"/>
<circle cx="871.104" cy="522.341" r="0.628525" fill="white"/>
<ellipse cx="965.417" cy="522.341" rx="0.62849" ry="0.628525" fill="white"/>
<ellipse cx="66.306" cy="585.216" rx="0.628506" ry="0.62849" fill="white"/>
<ellipse cx="160.618" cy="585.216" rx="0.628507" ry="0.62849" fill="white"/>
<ellipse cx="254.931" cy="585.216" rx="0.628507" ry="0.62849" fill="white"/>
<ellipse cx="349.243" cy="585.216" rx="0.628499" ry="0.62849" fill="white"/>
<ellipse cx="443.555" cy="585.216" rx="0.628507" ry="0.62849" fill="white"/>
<ellipse cx="537.867" cy="585.216" rx="0.628559" ry="0.62849" fill="white"/>
<ellipse cx="632.179" cy="585.216" rx="0.628507" ry="0.62849" fill="white"/>
<ellipse cx="726.492" cy="585.216" rx="0.628525" ry="0.62849" fill="white"/>
<circle cx="820.804" cy="585.216" r="0.62849" fill="white"/>
<circle cx="915.116" cy="585.216" r="0.62849" fill="white"/>
<ellipse cx="85.1687" cy="648.091" rx="0.628505" ry="0.628525" fill="white"/>
<ellipse cx="179.481" cy="648.091" rx="0.628507" ry="0.628525" fill="white"/>
<ellipse cx="273.793" cy="648.091" rx="0.628507" ry="0.628525" fill="white"/>
<ellipse cx="368.105" cy="648.091" rx="0.628481" ry="0.628525" fill="white"/>
<ellipse cx="462.417" cy="648.091" rx="0.62849" ry="0.628525" fill="white"/>
<circle cx="556.729" cy="648.091" r="0.628525" fill="white"/>
<ellipse cx="651.042" cy="648.091" rx="0.628559" ry="0.628525" fill="white"/>
<ellipse cx="745.354" cy="648.091" rx="0.62849" ry="0.628525" fill="white"/>
<circle cx="839.666" cy="648.091" r="0.628525" fill="white"/>
<ellipse cx="933.978" cy="648.091" rx="0.62849" ry="0.628525" fill="white"/>
<ellipse cx="129.181" cy="717.253" rx="0.628505" ry="0.62849" fill="white"/>
<circle cx="223.493" cy="717.253" r="0.62849" fill="white"/>
<ellipse cx="317.805" cy="717.253" rx="0.628516" ry="0.62849" fill="white"/>
<ellipse cx="412.117" cy="717.253" rx="0.628507" ry="0.62849" fill="white"/>
<circle cx="506.43" cy="717.253" r="0.62849" fill="white"/>
<ellipse cx="600.742" cy="717.253" rx="0.628507" ry="0.62849" fill="white"/>
<ellipse cx="695.054" cy="717.253" rx="0.628559" ry="0.62849" fill="white"/>
<ellipse cx="789.367" cy="717.253" rx="0.628525" ry="0.62849" fill="white"/>
<circle cx="883.679" cy="717.253" r="0.62849" fill="white"/>
<circle cx="977.991" cy="717.253" r="0.62849" fill="white"/>
<ellipse cx="91.4558" cy="786.416" rx="0.628505" ry="0.628525" fill="white"/>
<ellipse cx="185.768" cy="786.416" rx="0.628507" ry="0.628525" fill="white"/>
<ellipse cx="280.081" cy="786.416" rx="0.628507" ry="0.628525" fill="white"/>
<ellipse cx="374.393" cy="786.416" rx="0.628507" ry="0.628525" fill="white"/>
<ellipse cx="468.705" cy="786.416" rx="0.628507" ry="0.628525" fill="white"/>
<ellipse cx="563.017" cy="786.416" rx="0.628438" ry="0.628525" fill="white"/>
<ellipse cx="657.329" cy="786.416" rx="0.628507" ry="0.628525" fill="white"/>
<ellipse cx="751.641" cy="786.416" rx="0.62849" ry="0.628525" fill="white"/>
<circle cx="845.954" cy="786.416" r="0.628525" fill="white"/>
<ellipse cx="940.266" cy="786.416" rx="0.62849" ry="0.628525" fill="white"/>
<ellipse cx="141.756" cy="854.321" rx="0.628512" ry="0.628456" fill="white"/>
<ellipse cx="236.068" cy="854.321" rx="0.62849" ry="0.628456" fill="white"/>
<ellipse cx="330.38" cy="854.321" rx="0.628542" ry="0.628456" fill="white"/>
<ellipse cx="424.692" cy="854.321" rx="0.628507" ry="0.628456" fill="white"/>
<ellipse cx="519.005" cy="854.321" rx="0.62849" ry="0.628456" fill="white"/>
<ellipse cx="613.317" cy="854.321" rx="0.628525" ry="0.628456" fill="white"/>
<ellipse cx="707.629" cy="854.321" rx="0.628559" ry="0.628456" fill="white"/>
<ellipse cx="801.942" cy="854.321" rx="0.62849" ry="0.628456" fill="white"/>
<ellipse cx="896.254" cy="854.321" rx="0.628525" ry="0.628456" fill="white"/>
<ellipse cx="104.031" cy="923.483" rx="0.628505" ry="0.628525" fill="white"/>
<ellipse cx="198.343" cy="923.483" rx="0.62849" ry="0.628525" fill="white"/>
<ellipse cx="292.655" cy="923.483" rx="0.628507" ry="0.628525" fill="white"/>
<ellipse cx="386.968" cy="923.483" rx="0.628542" ry="0.628525" fill="white"/>
<ellipse cx="481.28" cy="923.483" rx="0.628507" ry="0.628525" fill="white"/>
<ellipse cx="575.592" cy="923.483" rx="0.628507" ry="0.628525" fill="white"/>
<circle cx="669.905" cy="923.483" r="0.628525" fill="white"/>
<ellipse cx="764.216" cy="923.483" rx="0.62849" ry="0.628525" fill="white"/>
<ellipse cx="858.529" cy="923.483" rx="0.62849" ry="0.628525" fill="white"/>
<circle cx="952.841" cy="923.483" r="0.628525" fill="white"/>
<ellipse cx="66.306" cy="992.645" rx="0.628506" ry="0.62849" fill="white"/>
<ellipse cx="160.618" cy="992.645" rx="0.628507" ry="0.62849" fill="white"/>
<ellipse cx="254.931" cy="992.645" rx="0.628507" ry="0.62849" fill="white"/>
<ellipse cx="349.243" cy="992.645" rx="0.628499" ry="0.62849" fill="white"/>
<ellipse cx="443.555" cy="992.645" rx="0.628507" ry="0.62849" fill="white"/>
<ellipse cx="537.867" cy="992.645" rx="0.628559" ry="0.62849" fill="white"/>
<ellipse cx="632.179" cy="992.645" rx="0.628507" ry="0.62849" fill="white"/>
<ellipse cx="726.492" cy="992.645" rx="0.628525" ry="0.62849" fill="white"/>
<circle cx="820.804" cy="992.645" r="0.62849" fill="white"/>
<circle cx="915.116" cy="992.645" r="0.62849" fill="white"/>
<ellipse cx="104.031" cy="1061.81" rx="0.628505" ry="0.628421" fill="white"/>
<ellipse cx="198.343" cy="1061.81" rx="0.62849" ry="0.628421" fill="white"/>
<ellipse cx="292.655" cy="1061.81" rx="0.628507" ry="0.628421" fill="white"/>
<ellipse cx="386.968" cy="1061.81" rx="0.628542" ry="0.628421" fill="white"/>
<ellipse cx="481.28" cy="1061.81" rx="0.628507" ry="0.628421" fill="white"/>
<ellipse cx="575.592" cy="1061.81" rx="0.628507" ry="0.628421" fill="white"/>
<ellipse cx="669.905" cy="1061.81" rx="0.628525" ry="0.628421" fill="white"/>
<ellipse cx="764.216" cy="1061.81" rx="0.62849" ry="0.628421" fill="white"/>
<ellipse cx="858.529" cy="1061.81" rx="0.62849" ry="0.628421" fill="white"/>
<ellipse cx="952.841" cy="1061.81" rx="0.628525" ry="0.628421" fill="white"/>
<ellipse cx="125.408" cy="12.4265" rx="1.25701" ry="1.25701" fill="white"/>
<ellipse cx="314.032" cy="18.714" rx="1.25698" ry="1.25701" fill="white"/>
<ellipse cx="502.657" cy="12.4265" rx="1.25701" ry="1.25701" fill="white"/>
<ellipse cx="691.282" cy="6.13907" rx="1.25698" ry="1.25701" fill="white"/>
<ellipse cx="879.906" cy="12.4265" rx="1.25701" ry="1.25701" fill="white"/>
<ellipse cx="1068.53" cy="18.714" rx="1.25712" ry="1.25701" fill="white"/>
<ellipse cx="87.6832" cy="138.176" rx="1.25701" ry="1.25701" fill="white"/>
<ellipse cx="276.308" cy="144.464" rx="1.25701" ry="1.25701" fill="white"/>
<circle cx="464.932" cy="138.176" r="1.25701" fill="white"/>
<ellipse cx="653.557" cy="131.889" rx="1.25696" ry="1.25701" fill="white"/>
<circle cx="842.181" cy="138.176" r="1.25701" fill="white"/>
<ellipse cx="1030.81" cy="144.464" rx="1.25688" ry="1.25701" fill="white"/>
<ellipse cx="163.133" cy="263.926" rx="1.257" ry="1.25701" fill="white"/>
<ellipse cx="351.758" cy="270.213" rx="1.25698" ry="1.25701" fill="white"/>
<ellipse cx="540.382" cy="263.926" rx="1.25696" ry="1.25701" fill="white"/>
<circle cx="729.007" cy="257.638" r="1.25701" fill="white"/>
<ellipse cx="917.631" cy="263.926" rx="1.25698" ry="1.25701" fill="white"/>
<circle cx="1106.26" cy="270.213" r="1.25701" fill="white"/>
<ellipse cx="131.696" cy="390.933" rx="1.25701" ry="1.25701" fill="white"/>
<circle cx="320.32" cy="397.22" r="1.25701" fill="white"/>
<circle cx="508.945" cy="390.933" r="1.25701" fill="white"/>
<ellipse cx="697.569" cy="384.645" rx="1.25705" ry="1.257" fill="white"/>
<ellipse cx="886.194" cy="390.933" rx="1.25698" ry="1.25701" fill="white"/>
<circle cx="1074.82" cy="395.963" r="1.25701" fill="white"/>
<ellipse cx="100.258" cy="516.682" rx="1.25701" ry="1.25701" fill="white"/>
<ellipse cx="288.883" cy="522.97" rx="1.25701" ry="1.25701" fill="white"/>
<ellipse cx="477.507" cy="516.682" rx="1.257" ry="1.25701" fill="white"/>
<ellipse cx="666.131" cy="510.395" rx="1.25708" ry="1.25701" fill="white"/>
<circle cx="854.756" cy="516.682" r="1.25701" fill="white"/>
<ellipse cx="1043.38" cy="521.713" rx="1.25688" ry="1.25701" fill="white"/>
<ellipse cx="200.858" cy="642.432" rx="1.25702" ry="1.25701" fill="white"/>
<ellipse cx="389.482" cy="648.72" rx="1.25701" ry="1.25705" fill="white"/>
<ellipse cx="578.107" cy="642.432" rx="1.257" ry="1.25701" fill="white"/>
<circle cx="766.731" cy="636.145" r="1.25701" fill="white"/>
<circle cx="955.356" cy="642.432" r="1.25701" fill="white"/>
<ellipse cx="1143.98" cy="647.462" rx="1.25688" ry="1.25701" fill="white"/>
<ellipse cx="83.282" cy="768.182" rx="1.25701" ry="1.25701" fill="white"/>
<ellipse cx="271.906" cy="774.469" rx="1.25701" ry="1.25701" fill="white"/>
<circle cx="460.531" cy="768.182" r="1.25701" fill="white"/>
<circle cx="649.156" cy="761.894" r="1.25701" fill="white"/>
<circle cx="837.78" cy="768.182" r="1.25701" fill="white"/>
<ellipse cx="1026.4" cy="773.212" rx="1.25691" ry="1.25705" fill="white"/>
<ellipse cx="97.7431" cy="876.327" rx="1.25701" ry="1.25701" fill="white"/>
<circle cx="286.368" cy="882.614" r="1.25701" fill="white"/>
<circle cx="474.992" cy="876.327" r="1.25701" fill="white"/>
<ellipse cx="663.617" cy="870.039" rx="1.25698" ry="1.25701" fill="white"/>
<circle cx="852.241" cy="876.327" r="1.25701" fill="white"/>
<circle cx="1040.87" cy="882.614" r="1.25701" fill="white"/>
<ellipse cx="143.642" cy="1010.88" rx="1.25701" ry="1.25701" fill="white"/>
<circle cx="332.266" cy="1017.17" r="1.25698" fill="white"/>
<circle cx="520.891" cy="1010.88" r="1.25701" fill="white"/>
<ellipse cx="709.516" cy="1004.59" rx="1.25695" ry="1.25701" fill="white"/>
<ellipse cx="898.139" cy="1010.88" rx="1.25698" ry="1.25701" fill="white"/>
<ellipse cx="1086.76" cy="1017.17" rx="1.25705" ry="1.25698" fill="white"/>
<ellipse cx="37.3834" cy="81.5888" rx="1.25701" ry="1.25701" fill="white"/>
<ellipse cx="226.008" cy="87.8762" rx="1.257" ry="1.25701" fill="white"/>
<ellipse cx="414.632" cy="81.5888" rx="1.257" ry="1.25701" fill="white"/>
<ellipse cx="603.257" cy="75.3013" rx="1.257" ry="1.25701" fill="white"/>
<ellipse cx="791.881" cy="81.5888" rx="1.25701" ry="1.25701" fill="white"/>
<ellipse cx="980.506" cy="87.8763" rx="1.25705" ry="1.25701" fill="white"/>
<ellipse cx="-0.341684" cy="207.338" rx="1.25701" ry="1.25701" fill="white"/>
<ellipse cx="188.283" cy="213.626" rx="1.25701" ry="1.25703" fill="white"/>
<circle cx="376.907" cy="207.338" r="1.25701" fill="white"/>
<ellipse cx="565.532" cy="201.051" rx="1.25707" ry="1.25701" fill="white"/>
<ellipse cx="754.156" cy="207.338" rx="1.25705" ry="1.25701" fill="white"/>
<ellipse cx="942.781" cy="213.626" rx="1.25698" ry="1.25703" fill="white"/>
<ellipse cx="75.1081" cy="334.345" rx="1.25701" ry="1.25701" fill="white"/>
<ellipse cx="263.733" cy="340.633" rx="1.25701" ry="1.257" fill="white"/>
<circle cx="452.357" cy="334.345" r="1.25701" fill="white"/>
<ellipse cx="640.982" cy="328.058" rx="1.25703" ry="1.25701" fill="white"/>
<ellipse cx="829.606" cy="334.345" rx="1.25698" ry="1.25701" fill="white"/>
<circle cx="1018.23" cy="339.376" r="1.25701" fill="white"/>
<ellipse cx="43.6707" cy="460.095" rx="1.25701" ry="1.25698" fill="white"/>
<ellipse cx="232.295" cy="466.382" rx="1.25701" ry="1.25701" fill="white"/>
<ellipse cx="420.92" cy="460.095" rx="1.257" ry="1.25698" fill="white"/>
<ellipse cx="609.544" cy="453.807" rx="1.25707" ry="1.25701" fill="white"/>
<ellipse cx="798.169" cy="460.095" rx="1.25701" ry="1.25698" fill="white"/>
<circle cx="986.793" cy="466.383" r="1.25701" fill="white"/>
<ellipse cx="12.2335" cy="584.587" rx="1.25701" ry="1.25701" fill="white"/>
<ellipse cx="200.858" cy="592.132" rx="1.25702" ry="1.25701" fill="white"/>
<circle cx="389.482" cy="585.845" r="1.25701" fill="white"/>
<ellipse cx="578.107" cy="579.557" rx="1.257" ry="1.25701" fill="white"/>
<circle cx="766.732" cy="585.845" r="1.25701" fill="white"/>
<circle cx="955.356" cy="592.132" r="1.25701" fill="white"/>
<ellipse cx="112.833" cy="711.594" rx="1.25701" ry="1.25698" fill="white"/>
<circle cx="301.457" cy="717.882" r="1.25701" fill="white"/>
<ellipse cx="490.082" cy="711.594" rx="1.25701" ry="1.25698" fill="white"/>
<ellipse cx="678.707" cy="705.307" rx="1.25708" ry="1.25701" fill="white"/>
<ellipse cx="867.331" cy="711.594" rx="1.25705" ry="1.25698" fill="white"/>
<circle cx="1055.96" cy="716.625" r="1.25701" fill="white"/>
<ellipse cx="183.882" cy="842.374" rx="1.25701" ry="1.25701" fill="white"/>
<ellipse cx="372.506" cy="836.087" rx="1.25703" ry="1.25701" fill="white"/>
<ellipse cx="561.131" cy="829.799" rx="1.25707" ry="1.25701" fill="white"/>
<circle cx="749.755" cy="836.087" r="1.25701" fill="white"/>
<circle cx="938.38" cy="842.374" r="1.25701" fill="white"/>
<ellipse cx="9.7185" cy="945.489" rx="1.25701" ry="1.25698" fill="white"/>
<ellipse cx="198.343" cy="951.777" rx="1.257" ry="1.25701" fill="white"/>
<ellipse cx="386.967" cy="945.489" rx="1.257" ry="1.25698" fill="white"/>
<ellipse cx="575.592" cy="939.201" rx="1.25707" ry="1.25705" fill="white"/>
<ellipse cx="764.217" cy="945.489" rx="1.25701" ry="1.25698" fill="white"/>
<circle cx="952.841" cy="951.777" r="1.25701" fill="white"/>
<ellipse cx="55.617" cy="1080.04" rx="1.25701" ry="1.25698" fill="white"/>
<ellipse cx="432.866" cy="1080.04" rx="1.25701" ry="1.25698" fill="white"/>
<ellipse cx="621.491" cy="1073.75" rx="1.25696" ry="1.25698" fill="white"/>
<ellipse cx="810.115" cy="1080.04" rx="1.25701" ry="1.25698" fill="white"/>
<ellipse cx="959.129" cy="4.25302" rx="0.628504" ry="0.628507" fill="white"/>
<circle cx="1053.44" cy="4.25302" r="0.628507" fill="white"/>
<circle cx="1147.75" cy="4.25302" r="0.628507" fill="white"/>
<ellipse cx="1242.07" cy="4.25302" rx="0.628499" ry="0.628507" fill="white"/>
<circle cx="1336.38" cy="4.25302" r="0.628507" fill="white"/>
<circle cx="1430.69" cy="4.25302" r="0.628507" fill="white"/>
<ellipse cx="1525" cy="4.25302" rx="0.628438" ry="0.628507" fill="white"/>
<ellipse cx="1619.31" cy="4.25302" rx="0.62849" ry="0.628507" fill="white"/>
<ellipse cx="1713.63" cy="4.25302" rx="0.628525" ry="0.628507" fill="white"/>
<ellipse cx="1807.94" cy="4.25302" rx="0.628525" ry="0.628507" fill="white"/>
<circle cx="1003.14" cy="67.1278" r="0.628507" fill="white"/>
<ellipse cx="1097.45" cy="67.1278" rx="0.62852" ry="0.628507" fill="white"/>
<circle cx="1191.77" cy="67.1278" r="0.628507" fill="white"/>
<ellipse cx="1286.08" cy="67.1278" rx="0.62849" ry="0.628507" fill="white"/>
<ellipse cx="1380.39" cy="67.1278" rx="0.628525" ry="0.628507" fill="white"/>
<circle cx="1474.7" cy="67.1278" r="0.628507" fill="white"/>
<ellipse cx="1569.01" cy="67.1278" rx="0.628525" ry="0.628507" fill="white"/>
<ellipse cx="1663.33" cy="67.1278" rx="0.62849" ry="0.628507" fill="white"/>
<ellipse cx="1757.64" cy="67.1278" rx="0.628525" ry="0.628507" fill="white"/>
<ellipse cx="1851.95" cy="67.1278" rx="0.628525" ry="0.628507" fill="white"/>
<ellipse cx="984.279" cy="130.003" rx="0.628508" ry="0.628507" fill="white"/>
<circle cx="1078.59" cy="130.003" r="0.628507" fill="white"/>
<circle cx="1172.9" cy="130.003" r="0.628507" fill="white"/>
<ellipse cx="1267.22" cy="130.003" rx="0.628525" ry="0.628507" fill="white"/>
<circle cx="1361.53" cy="130.003" r="0.628507" fill="white"/>
<circle cx="1455.84" cy="130.003" r="0.628507" fill="white"/>
<ellipse cx="1550.15" cy="130.003" rx="0.62849" ry="0.628507" fill="white"/>
<ellipse cx="1644.46" cy="130.003" rx="0.628525" ry="0.628507" fill="white"/>
<ellipse cx="1738.78" cy="130.003" rx="0.628525" ry="0.628507" fill="white"/>
<ellipse cx="1833.09" cy="130.003" rx="0.62849" ry="0.628507" fill="white"/>
<circle cx="1003.14" cy="192.878" r="0.628507" fill="white"/>
<ellipse cx="1097.45" cy="192.878" rx="0.62852" ry="0.628507" fill="white"/>
<circle cx="1191.77" cy="192.878" r="0.628507" fill="white"/>
<ellipse cx="1286.08" cy="192.878" rx="0.62849" ry="0.628507" fill="white"/>
<ellipse cx="1380.39" cy="192.878" rx="0.628525" ry="0.628507" fill="white"/>
<circle cx="1474.7" cy="192.878" r="0.628507" fill="white"/>
<ellipse cx="1569.01" cy="192.878" rx="0.628525" ry="0.628507" fill="white"/>
<ellipse cx="1663.33" cy="192.878" rx="0.62849" ry="0.628507" fill="white"/>
<ellipse cx="1757.64" cy="192.878" rx="0.628525" ry="0.628507" fill="white"/>
<ellipse cx="1851.95" cy="192.878" rx="0.628525" ry="0.628507" fill="white"/>
<ellipse cx="971.703" cy="257.01" rx="0.628505" ry="0.628507" fill="white"/>
<circle cx="1066.02" cy="257.01" r="0.628507" fill="white"/>
<ellipse cx="1160.33" cy="257.01" rx="0.628499" ry="0.628507" fill="white"/>
<ellipse cx="1254.64" cy="257.01" rx="0.628533" ry="0.628507" fill="white"/>
<circle cx="1348.95" cy="257.01" r="0.628507" fill="white"/>
<circle cx="1443.27" cy="257.01" r="0.628507" fill="white"/>
<ellipse cx="1537.58" cy="257.01" rx="0.628559" ry="0.628507" fill="white"/>
<ellipse cx="1631.89" cy="257.01" rx="0.62849" ry="0.628507" fill="white"/>
<ellipse cx="1726.2" cy="257.01" rx="0.628525" ry="0.628507" fill="white"/>
<ellipse cx="1820.51" cy="257.01" rx="0.62849" ry="0.628507" fill="white"/>
<ellipse cx="1009.43" cy="319.884" rx="0.628505" ry="0.628507" fill="white"/>
<circle cx="1103.74" cy="319.884" r="0.628507" fill="white"/>
<ellipse cx="1198.05" cy="319.884" rx="0.628533" ry="0.628507" fill="white"/>
<circle cx="1292.37" cy="319.884" r="0.628507" fill="white"/>
<circle cx="1386.68" cy="319.884" r="0.628507" fill="white"/>
<ellipse cx="1480.99" cy="319.884" rx="0.628559" ry="0.628507" fill="white"/>
<ellipse cx="1575.3" cy="319.884" rx="0.628421" ry="0.628507" fill="white"/>
<ellipse cx="1669.61" cy="319.884" rx="0.628525" ry="0.628507" fill="white"/>
<ellipse cx="1763.93" cy="319.884" rx="0.62849" ry="0.628507" fill="white"/>
<ellipse cx="996.853" cy="382.759" rx="0.628505" ry="0.628507" fill="white"/>
<ellipse cx="1091.17" cy="382.759" rx="0.62849" ry="0.628507" fill="white"/>
<circle cx="1185.48" cy="382.759" r="0.628507" fill="white"/>
<ellipse cx="1279.79" cy="382.759" rx="0.628542" ry="0.628507" fill="white"/>
<circle cx="1374.1" cy="382.759" r="0.628507" fill="white"/>
<ellipse cx="1468.41" cy="382.759" rx="0.628438" ry="0.628507" fill="white"/>
<ellipse cx="1562.73" cy="382.759" rx="0.628559" ry="0.628507" fill="white"/>
<ellipse cx="1657.04" cy="382.759" rx="0.628525" ry="0.628507" fill="white"/>
<ellipse cx="1751.35" cy="382.759" rx="0.628525" ry="0.628507" fill="white"/>
<ellipse cx="1845.66" cy="382.759" rx="0.62849" ry="0.628507" fill="white"/>
<ellipse cx="1034.58" cy="445.634" rx="0.628512" ry="0.62849" fill="white"/>
<ellipse cx="1128.89" cy="445.634" rx="0.628507" ry="0.62849" fill="white"/>
<ellipse cx="1223.2" cy="445.634" rx="0.628533" ry="0.62849" fill="white"/>
<ellipse cx="1317.52" cy="445.634" rx="0.628507" ry="0.62849" fill="white"/>
<circle cx="1411.83" cy="445.634" r="0.62849" fill="white"/>
<ellipse cx="1506.14" cy="445.634" rx="0.628559" ry="0.62849" fill="white"/>
<ellipse cx="1600.45" cy="445.634" rx="0.628525" ry="0.62849" fill="white"/>
<ellipse cx="1694.76" cy="445.634" rx="0.628525" ry="0.62849" fill="white"/>
<circle cx="1789.08" cy="445.634" r="0.62849" fill="white"/>
<ellipse cx="1883.39" cy="445.634" rx="0.628732" ry="0.62849" fill="white"/>
<ellipse cx="984.279" cy="508.509" rx="0.628508" ry="0.62849" fill="white"/>
<ellipse cx="1078.59" cy="508.509" rx="0.628507" ry="0.62849" fill="white"/>
<ellipse cx="1172.9" cy="508.509" rx="0.628507" ry="0.62849" fill="white"/>
<ellipse cx="1267.22" cy="508.509" rx="0.628525" ry="0.62849" fill="white"/>
<ellipse cx="1361.53" cy="508.509" rx="0.628507" ry="0.62849" fill="white"/>
<ellipse cx="1455.84" cy="508.509" rx="0.628507" ry="0.62849" fill="white"/>
<circle cx="1550.15" cy="508.509" r="0.62849" fill="white"/>
<ellipse cx="1644.46" cy="508.509" rx="0.628525" ry="0.62849" fill="white"/>
<ellipse cx="1738.78" cy="508.509" rx="0.628525" ry="0.62849" fill="white"/>
<circle cx="1833.09" cy="508.509" r="0.62849" fill="white"/>
<ellipse cx="1003.14" cy="571.384" rx="0.628507" ry="0.62849" fill="white"/>
<ellipse cx="1097.45" cy="571.384" rx="0.62852" ry="0.62849" fill="white"/>
<ellipse cx="1191.77" cy="571.384" rx="0.628507" ry="0.62849" fill="white"/>
<circle cx="1286.08" cy="571.384" r="0.62849" fill="white"/>
<ellipse cx="1380.39" cy="571.384" rx="0.628525" ry="0.62849" fill="white"/>
<ellipse cx="1474.7" cy="571.384" rx="0.628507" ry="0.62849" fill="white"/>
<ellipse cx="1569.01" cy="571.384" rx="0.628525" ry="0.62849" fill="white"/>
<circle cx="1663.33" cy="571.384" r="0.62849" fill="white"/>
<ellipse cx="1757.64" cy="571.384" rx="0.628525" ry="0.62849" fill="white"/>
<ellipse cx="1851.95" cy="571.384" rx="0.628525" ry="0.62849" fill="white"/>
<ellipse cx="1047.15" cy="640.546" rx="0.628503" ry="0.62849" fill="white"/>
<ellipse cx="1141.47" cy="640.546" rx="0.628507" ry="0.62849" fill="white"/>
<ellipse cx="1235.78" cy="640.546" rx="0.628499" ry="0.62849" fill="white"/>
<ellipse cx="1330.09" cy="640.546" rx="0.628507" ry="0.62849" fill="white"/>
<ellipse cx="1424.4" cy="640.546" rx="0.628559" ry="0.62849" fill="white"/>
<ellipse cx="1518.72" cy="640.546" rx="0.628438" ry="0.62849" fill="white"/>
<ellipse cx="1613.03" cy="640.546" rx="0.628525" ry="0.62849" fill="white"/>
<circle cx="1707.34" cy="640.546" r="0.62849" fill="white"/>
<circle cx="1801.65" cy="640.546" r="0.62849" fill="white"/>
<ellipse cx="1895.96" cy="640.546" rx="0.628525" ry="0.62849" fill="white"/>
<ellipse cx="1009.43" cy="709.708" rx="0.628505" ry="0.628525" fill="white"/>
<ellipse cx="1103.74" cy="709.708" rx="0.628507" ry="0.628525" fill="white"/>
<ellipse cx="1198.05" cy="709.708" rx="0.628533" ry="0.628525" fill="white"/>
<ellipse cx="1292.37" cy="709.708" rx="0.628507" ry="0.628525" fill="white"/>
<ellipse cx="1386.68" cy="709.708" rx="0.628507" ry="0.628525" fill="white"/>
<ellipse cx="1480.99" cy="709.708" rx="0.628559" ry="0.628525" fill="white"/>
<ellipse cx="1575.3" cy="709.708" rx="0.628421" ry="0.628525" fill="white"/>
<circle cx="1669.61" cy="709.708" r="0.628525" fill="white"/>
<ellipse cx="1763.93" cy="709.708" rx="0.62849" ry="0.628525" fill="white"/>
<ellipse cx="1858.24" cy="709.708" rx="0.62849" ry="0.628525" fill="white"/>
<ellipse cx="1059.73" cy="777.613" rx="0.628503" ry="0.628525" fill="white"/>
<ellipse cx="1154.04" cy="777.613" rx="0.628499" ry="0.628525" fill="white"/>
<ellipse cx="1248.35" cy="777.613" rx="0.628533" ry="0.628525" fill="white"/>
<ellipse cx="1342.67" cy="777.613" rx="0.62849" ry="0.628525" fill="white"/>
<ellipse cx="1436.98" cy="777.613" rx="0.62849" ry="0.628525" fill="white"/>
<ellipse cx="1531.29" cy="777.613" rx="0.628507" ry="0.628525" fill="white"/>
<circle cx="1625.6" cy="777.613" r="0.628525" fill="white"/>
<ellipse cx="1719.91" cy="777.613" rx="0.62849" ry="0.628525" fill="white"/>
<circle cx="1814.23" cy="777.613" r="0.628525" fill="white"/>
<ellipse cx="1022" cy="846.776" rx="0.628505" ry="0.628525" fill="white"/>
<ellipse cx="1116.32" cy="846.776" rx="0.628507" ry="0.628525" fill="white"/>
<ellipse cx="1210.63" cy="846.776" rx="0.628516" ry="0.628525" fill="white"/>
<ellipse cx="1304.94" cy="846.776" rx="0.628507" ry="0.628525" fill="white"/>
<ellipse cx="1399.25" cy="846.776" rx="0.62849" ry="0.628525" fill="white"/>
<ellipse cx="1493.56" cy="846.776" rx="0.62849" ry="0.628525" fill="white"/>
<circle cx="1587.88" cy="846.776" r="0.628525" fill="white"/>
<circle cx="1682.19" cy="846.776" r="0.628525" fill="white"/>
<ellipse cx="1776.5" cy="846.776" rx="0.62849" ry="0.628525" fill="white"/>
<circle cx="1870.81" cy="846.776" r="0.628525" fill="white"/>
<ellipse cx="984.279" cy="915.938" rx="0.628508" ry="0.62849" fill="white"/>
<ellipse cx="1078.59" cy="915.938" rx="0.628507" ry="0.62849" fill="white"/>
<ellipse cx="1172.9" cy="915.938" rx="0.628507" ry="0.62849" fill="white"/>
<ellipse cx="1267.22" cy="915.938" rx="0.628525" ry="0.62849" fill="white"/>
<ellipse cx="1361.53" cy="915.938" rx="0.628507" ry="0.62849" fill="white"/>
<ellipse cx="1455.84" cy="915.938" rx="0.628507" ry="0.62849" fill="white"/>
<circle cx="1550.15" cy="915.938" r="0.62849" fill="white"/>
<ellipse cx="1644.46" cy="915.938" rx="0.628525" ry="0.62849" fill="white"/>
<ellipse cx="1738.78" cy="915.938" rx="0.628525" ry="0.62849" fill="white"/>
<circle cx="1833.09" cy="915.938" r="0.62849" fill="white"/>
<ellipse cx="1022" cy="985.1" rx="0.628505" ry="0.62849" fill="white"/>
<ellipse cx="1116.32" cy="985.1" rx="0.628507" ry="0.62849" fill="white"/>
<ellipse cx="1210.63" cy="985.1" rx="0.628516" ry="0.62849" fill="white"/>
<ellipse cx="1304.94" cy="985.1" rx="0.628507" ry="0.62849" fill="white"/>
<circle cx="1399.25" cy="985.1" r="0.62849" fill="white"/>
<circle cx="1493.56" cy="985.1" r="0.62849" fill="white"/>
<ellipse cx="1587.88" cy="985.1" rx="0.628525" ry="0.62849" fill="white"/>
<ellipse cx="1682.19" cy="985.1" rx="0.628525" ry="0.62849" fill="white"/>
<circle cx="1776.5" cy="985.1" r="0.62849" fill="white"/>
<ellipse cx="996.853" cy="1047.98" rx="0.628505" ry="0.62849" fill="white"/>
<circle cx="1091.17" cy="1047.98" r="0.62849" fill="white"/>
<ellipse cx="1185.48" cy="1047.98" rx="0.628507" ry="0.62849" fill="white"/>
<ellipse cx="1279.79" cy="1047.98" rx="0.628542" ry="0.62849" fill="white"/>
<ellipse cx="1374.1" cy="1047.98" rx="0.628507" ry="0.62849" fill="white"/>
<ellipse cx="1468.41" cy="1047.98" rx="0.628438" ry="0.62849" fill="white"/>
<ellipse cx="1562.73" cy="1047.98" rx="0.628559" ry="0.62849" fill="white"/>
<ellipse cx="1657.04" cy="1047.98" rx="0.628525" ry="0.62849" fill="white"/>
<ellipse cx="1751.35" cy="1047.98" rx="0.628525" ry="0.62849" fill="white"/>
<ellipse cx="1751.35" cy="1047.98" rx="0.628525" ry="0.62849" fill="white"/>
<ellipse cx="1870.81" cy="985.1" rx="0.628525" ry="0.62849" fill="white"/>
<ellipse cx="990.566" cy="10.5404" rx="0.628506" ry="0.628507" fill="white"/>
<circle cx="1084.88" cy="10.5404" r="0.628507" fill="white"/>
<ellipse cx="1179.19" cy="10.5404" rx="0.628499" ry="0.628507" fill="white"/>
<ellipse cx="1273.5" cy="10.5404" rx="0.628473" ry="0.628507" fill="white"/>
<circle cx="1367.82" cy="10.5404" r="0.628507" fill="white"/>
<ellipse cx="1462.13" cy="10.5404" rx="0.628438" ry="0.628507" fill="white"/>
<ellipse cx="1556.44" cy="10.5404" rx="0.628525" ry="0.628507" fill="white"/>
<ellipse cx="1650.75" cy="10.5404" rx="0.62849" ry="0.628507" fill="white"/>
<ellipse cx="1745.06" cy="10.5404" rx="0.62849" ry="0.628507" fill="white"/>
<ellipse cx="1839.38" cy="10.5404" rx="0.628525" ry="0.628507" fill="white"/>
<ellipse cx="1034.58" cy="73.4153" rx="0.628512" ry="0.628507" fill="white"/>
<circle cx="1128.89" cy="73.4153" r="0.628507" fill="white"/>
<ellipse cx="1223.2" cy="73.4153" rx="0.628533" ry="0.628507" fill="white"/>
<circle cx="1317.51" cy="73.4153" r="0.628507" fill="white"/>
<ellipse cx="1411.83" cy="73.4153" rx="0.62849" ry="0.628507" fill="white"/>
<ellipse cx="1506.14" cy="73.4153" rx="0.628559" ry="0.628507" fill="white"/>
<ellipse cx="1600.45" cy="73.4153" rx="0.628525" ry="0.628507" fill="white"/>
<ellipse cx="1694.76" cy="73.4153" rx="0.628525" ry="0.628507" fill="white"/>
<ellipse cx="1789.08" cy="73.4153" rx="0.62849" ry="0.628507" fill="white"/>
<ellipse cx="1883.39" cy="73.4153" rx="0.628732" ry="0.628507" fill="white"/>
<circle cx="1015.72" cy="136.29" r="0.628507" fill="white"/>
<circle cx="1110.03" cy="136.29" r="0.628507" fill="white"/>
<ellipse cx="1204.34" cy="136.29" rx="0.628481" ry="0.628507" fill="white"/>
<ellipse cx="1298.65" cy="136.29" rx="0.62849" ry="0.628507" fill="white"/>
<circle cx="1392.96" cy="136.29" r="0.628507" fill="white"/>
<circle cx="1487.28" cy="136.29" r="0.628507" fill="white"/>
<ellipse cx="1581.59" cy="136.29" rx="0.628456" ry="0.628507" fill="white"/>
<ellipse cx="1675.9" cy="136.29" rx="0.62849" ry="0.628507" fill="white"/>
<ellipse cx="1770.21" cy="136.29" rx="0.628525" ry="0.628507" fill="white"/>
<ellipse cx="1864.53" cy="136.29" rx="0.628525" ry="0.628507" fill="white"/>
<ellipse cx="1034.58" cy="199.165" rx="0.628512" ry="0.628507" fill="white"/>
<circle cx="1128.89" cy="199.165" r="0.628507" fill="white"/>
<ellipse cx="1223.2" cy="199.165" rx="0.628533" ry="0.628507" fill="white"/>
<circle cx="1317.51" cy="199.165" r="0.628507" fill="white"/>
<ellipse cx="1411.83" cy="199.165" rx="0.62849" ry="0.628507" fill="white"/>
<ellipse cx="1506.14" cy="199.165" rx="0.628559" ry="0.628507" fill="white"/>
<ellipse cx="1600.45" cy="199.165" rx="0.628525" ry="0.628507" fill="white"/>
<ellipse cx="1694.76" cy="199.165" rx="0.628525" ry="0.628507" fill="white"/>
<ellipse cx="1789.08" cy="199.165" rx="0.62849" ry="0.628507" fill="white"/>
<ellipse cx="1883.39" cy="199.165" rx="0.628732" ry="0.628507" fill="white"/>
<circle cx="1003.14" cy="263.297" r="0.628507" fill="white"/>
<ellipse cx="1097.45" cy="263.297" rx="0.62852" ry="0.628507" fill="white"/>
<circle cx="1191.77" cy="263.297" r="0.628507" fill="white"/>
<ellipse cx="1286.08" cy="263.297" rx="0.62849" ry="0.628507" fill="white"/>
<ellipse cx="1380.39" cy="263.297" rx="0.628525" ry="0.628507" fill="white"/>
<circle cx="1474.7" cy="263.297" r="0.628507" fill="white"/>
<ellipse cx="1569.01" cy="263.297" rx="0.628525" ry="0.628507" fill="white"/>
<ellipse cx="1663.33" cy="263.297" rx="0.62849" ry="0.628507" fill="white"/>
<ellipse cx="1757.64" cy="263.297" rx="0.628525" ry="0.628507" fill="white"/>
<ellipse cx="1851.95" cy="263.297" rx="0.628525" ry="0.628507" fill="white"/>
<circle cx="1040.87" cy="326.172" r="0.628507" fill="white"/>
<circle cx="1135.18" cy="326.172" r="0.628507" fill="white"/>
<ellipse cx="1229.49" cy="326.172" rx="0.628499" ry="0.628507" fill="white"/>
<ellipse cx="1323.8" cy="326.172" rx="0.628525" ry="0.628507" fill="white"/>
<circle cx="1418.11" cy="326.172" r="0.628507" fill="white"/>
<circle cx="1512.43" cy="326.172" r="0.628507" fill="white"/>
<ellipse cx="1606.74" cy="326.172" rx="0.62849" ry="0.628507" fill="white"/>
<ellipse cx="1701.05" cy="326.172" rx="0.628525" ry="0.628507" fill="white"/>
<ellipse cx="1795.36" cy="326.172" rx="0.628525" ry="0.628507" fill="white"/>
<ellipse cx="1028.29" cy="389.047" rx="0.628499" ry="0.628507" fill="white"/>
<ellipse cx="1122.6" cy="389.047" rx="0.628516" ry="0.628507" fill="white"/>
<ellipse cx="1216.91" cy="389.047" rx="0.628473" ry="0.628507" fill="white"/>
<circle cx="1311.23" cy="389.047" r="0.628507" fill="white"/>
<circle cx="1405.54" cy="389.047" r="0.628507" fill="white"/>
<circle cx="1499.85" cy="389.047" r="0.628507" fill="white"/>
<ellipse cx="1594.16" cy="389.047" rx="0.628559" ry="0.628507" fill="white"/>
<ellipse cx="1688.48" cy="389.047" rx="0.62849" ry="0.628507" fill="white"/>
<ellipse cx="1782.79" cy="389.047" rx="0.628525" ry="0.628507" fill="white"/>
<ellipse cx="1877.1" cy="389.047" rx="0.628386" ry="0.628507" fill="white"/>
<ellipse cx="1066.02" cy="451.921" rx="0.628507" ry="0.62849" fill="white"/>
<ellipse cx="1160.33" cy="451.921" rx="0.628499" ry="0.62849" fill="white"/>
<ellipse cx="1254.64" cy="451.921" rx="0.628533" ry="0.62849" fill="white"/>
<ellipse cx="1348.95" cy="451.921" rx="0.628507" ry="0.62849" fill="white"/>
<ellipse cx="1443.26" cy="451.921" rx="0.628507" ry="0.62849" fill="white"/>
<ellipse cx="1537.58" cy="451.921" rx="0.628559" ry="0.62849" fill="white"/>
<circle cx="1631.89" cy="451.921" r="0.62849" fill="white"/>
<ellipse cx="1726.2" cy="451.921" rx="0.628525" ry="0.62849" fill="white"/>
<circle cx="1820.51" cy="451.921" r="0.62849" fill="white"/>
<ellipse cx="1914.83" cy="450.664" rx="0.628352" ry="0.62849" fill="white"/>
<ellipse cx="1015.72" cy="514.796" rx="0.628507" ry="0.628525" fill="white"/>
<ellipse cx="1110.03" cy="514.796" rx="0.628507" ry="0.628525" fill="white"/>
<ellipse cx="1204.34" cy="514.796" rx="0.628481" ry="0.628525" fill="white"/>
<ellipse cx="1298.65" cy="514.796" rx="0.62849" ry="0.628525" fill="white"/>
<ellipse cx="1392.96" cy="514.796" rx="0.628507" ry="0.628525" fill="white"/>
<ellipse cx="1487.28" cy="514.796" rx="0.628507" ry="0.628525" fill="white"/>
<ellipse cx="1581.59" cy="514.796" rx="0.628456" ry="0.628525" fill="white"/>
<ellipse cx="1675.9" cy="514.796" rx="0.62849" ry="0.628525" fill="white"/>
<circle cx="1770.21" cy="514.796" r="0.628525" fill="white"/>
<circle cx="1864.53" cy="514.796" r="0.628525" fill="white"/>
<ellipse cx="1034.58" cy="577.671" rx="0.628512" ry="0.628525" fill="white"/>
<ellipse cx="1128.89" cy="577.671" rx="0.628507" ry="0.628525" fill="white"/>
<ellipse cx="1223.2" cy="577.671" rx="0.628533" ry="0.628525" fill="white"/>
<ellipse cx="1317.51" cy="577.671" rx="0.628507" ry="0.628525" fill="white"/>
<ellipse cx="1411.83" cy="577.671" rx="0.62849" ry="0.628525" fill="white"/>
<ellipse cx="1506.14" cy="577.671" rx="0.628559" ry="0.628525" fill="white"/>
<circle cx="1600.45" cy="577.671" r="0.628525" fill="white"/>
<circle cx="1694.76" cy="577.671" r="0.628525" fill="white"/>
<ellipse cx="1789.08" cy="577.671" rx="0.62849" ry="0.628525" fill="white"/>
<ellipse cx="1883.39" cy="577.671" rx="0.628732" ry="0.628525" fill="white"/>
<ellipse cx="1078.59" cy="646.833" rx="0.628507" ry="0.62849" fill="white"/>
<ellipse cx="1172.9" cy="646.833" rx="0.628507" ry="0.62849" fill="white"/>
<ellipse cx="1267.21" cy="646.833" rx="0.628525" ry="0.62849" fill="white"/>
<ellipse cx="1361.53" cy="646.833" rx="0.628507" ry="0.62849" fill="white"/>
<ellipse cx="1455.84" cy="646.833" rx="0.628507" ry="0.62849" fill="white"/>
<circle cx="1550.15" cy="646.833" r="0.62849" fill="white"/>
<ellipse cx="1644.46" cy="646.833" rx="0.628525" ry="0.62849" fill="white"/>
<ellipse cx="1738.78" cy="646.833" rx="0.628525" ry="0.62849" fill="white"/>
<circle cx="1833.09" cy="646.833" r="0.62849" fill="white"/>
<ellipse cx="1040.87" cy="715.996" rx="0.628507" ry="0.62849" fill="white"/>
<ellipse cx="1135.18" cy="715.996" rx="0.628507" ry="0.62849" fill="white"/>
<ellipse cx="1229.49" cy="715.996" rx="0.628499" ry="0.62849" fill="white"/>
<ellipse cx="1323.8" cy="715.996" rx="0.628525" ry="0.62849" fill="white"/>
<ellipse cx="1418.11" cy="715.996" rx="0.628507" ry="0.62849" fill="white"/>
<ellipse cx="1512.43" cy="715.996" rx="0.628507" ry="0.62849" fill="white"/>
<circle cx="1606.74" cy="715.996" r="0.62849" fill="white"/>
<ellipse cx="1701.05" cy="715.996" rx="0.628525" ry="0.62849" fill="white"/>
<ellipse cx="1795.36" cy="715.996" rx="0.628525" ry="0.62849" fill="white"/>
<ellipse cx="1889.68" cy="715.996" rx="0.628525" ry="0.62849" fill="white"/>
<circle cx="1091.17" cy="783.901" r="0.62849" fill="white"/>
<ellipse cx="1185.48" cy="783.901" rx="0.628507" ry="0.62849" fill="white"/>
<ellipse cx="1279.79" cy="783.901" rx="0.628542" ry="0.62849" fill="white"/>
<ellipse cx="1374.1" cy="783.901" rx="0.628507" ry="0.62849" fill="white"/>
<ellipse cx="1468.41" cy="783.901" rx="0.628438" ry="0.62849" fill="white"/>
<ellipse cx="1562.73" cy="783.901" rx="0.628559" ry="0.62849" fill="white"/>
<ellipse cx="1657.04" cy="783.901" rx="0.628525" ry="0.62849" fill="white"/>
<ellipse cx="1751.35" cy="783.901" rx="0.628525" ry="0.62849" fill="white"/>
<circle cx="1845.66" cy="783.901" r="0.62849" fill="white"/>
<ellipse cx="1053.44" cy="853.063" rx="0.628507" ry="0.628525" fill="white"/>
<ellipse cx="1147.75" cy="853.063" rx="0.628507" ry="0.628525" fill="white"/>
<ellipse cx="1242.07" cy="853.063" rx="0.628499" ry="0.628525" fill="white"/>
<ellipse cx="1336.38" cy="853.063" rx="0.628507" ry="0.628525" fill="white"/>
<ellipse cx="1430.69" cy="853.063" rx="0.628507" ry="0.628525" fill="white"/>
<ellipse cx="1525" cy="853.063" rx="0.628438" ry="0.628525" fill="white"/>
<ellipse cx="1619.31" cy="853.063" rx="0.62849" ry="0.628525" fill="white"/>
<circle cx="1713.63" cy="853.063" r="0.628525" fill="white"/>
<circle cx="1807.94" cy="853.063" r="0.628525" fill="white"/>
<circle cx="1902.25" cy="853.063" r="0.628525" fill="white"/>
<ellipse cx="1015.72" cy="922.225" rx="0.628507" ry="0.628525" fill="white"/>
<ellipse cx="1110.03" cy="922.225" rx="0.628507" ry="0.628525" fill="white"/>
<ellipse cx="1204.34" cy="922.225" rx="0.628481" ry="0.628525" fill="white"/>
<ellipse cx="1298.65" cy="922.225" rx="0.62849" ry="0.628525" fill="white"/>
<ellipse cx="1392.96" cy="922.225" rx="0.628507" ry="0.628525" fill="white"/>
<ellipse cx="1487.28" cy="922.225" rx="0.628507" ry="0.628525" fill="white"/>
<ellipse cx="1581.59" cy="922.225" rx="0.628456" ry="0.628525" fill="white"/>
<ellipse cx="1675.9" cy="922.225" rx="0.62849" ry="0.628525" fill="white"/>
<circle cx="1770.21" cy="922.225" r="0.628525" fill="white"/>
<circle cx="1864.53" cy="922.225" r="0.628525" fill="white"/>
<ellipse cx="1053.44" cy="991.388" rx="0.628507" ry="0.62849" fill="white"/>
<ellipse cx="1147.75" cy="991.388" rx="0.628507" ry="0.62849" fill="white"/>
<ellipse cx="1242.07" cy="991.388" rx="0.628499" ry="0.62849" fill="white"/>
<ellipse cx="1336.38" cy="991.388" rx="0.628507" ry="0.62849" fill="white"/>
<ellipse cx="1430.69" cy="991.388" rx="0.628507" ry="0.62849" fill="white"/>
<ellipse cx="1525" cy="991.388" rx="0.628438" ry="0.62849" fill="white"/>
<circle cx="1619.31" cy="991.388" r="0.62849" fill="white"/>
<ellipse cx="1713.63" cy="991.388" rx="0.628525" ry="0.62849" fill="white"/>
<ellipse cx="1807.94" cy="991.388" rx="0.628525" ry="0.62849" fill="white"/>
<ellipse cx="1028.29" cy="1054.26" rx="0.628499" ry="0.62849" fill="white"/>
<ellipse cx="1122.6" cy="1054.26" rx="0.628516" ry="0.62849" fill="white"/>
<ellipse cx="1216.91" cy="1054.26" rx="0.628473" ry="0.62849" fill="white"/>
<ellipse cx="1311.23" cy="1054.26" rx="0.628507" ry="0.62849" fill="white"/>
<ellipse cx="1405.54" cy="1054.26" rx="0.628507" ry="0.62849" fill="white"/>
<ellipse cx="1499.85" cy="1054.26" rx="0.628507" ry="0.62849" fill="white"/>
<ellipse cx="1594.16" cy="1054.26" rx="0.628559" ry="0.62849" fill="white"/>
<circle cx="1688.48" cy="1054.26" r="0.62849" fill="white"/>
<ellipse cx="1782.79" cy="1054.26" rx="0.628525" ry="0.62849" fill="white"/>
<ellipse cx="1782.79" cy="1054.26" rx="0.628525" ry="0.62849" fill="white"/>
<ellipse cx="1902.25" cy="991.388" rx="0.628525" ry="0.62849" fill="white"/>
<ellipse cx="923.919" cy="35.6904" rx="0.628505" ry="0.628507" fill="white"/>
<ellipse cx="1018.23" cy="35.6904" rx="0.628505" ry="0.628507" fill="white"/>
<ellipse cx="1112.54" cy="35.6904" rx="0.628525" ry="0.628507" fill="white"/>
<ellipse cx="1206.86" cy="35.6904" rx="0.628481" ry="0.628507" fill="white"/>
<circle cx="1301.17" cy="35.6904" r="0.628507" fill="white"/>
<circle cx="1395.48" cy="35.6904" r="0.628507" fill="white"/>
<ellipse cx="1489.79" cy="35.6904" rx="0.628559" ry="0.628507" fill="white"/>
<ellipse cx="1584.1" cy="35.6904" rx="0.628525" ry="0.628507" fill="white"/>
<ellipse cx="1678.42" cy="35.6904" rx="0.62849" ry="0.628507" fill="white"/>
<ellipse cx="1772.73" cy="35.6904" rx="0.62849" ry="0.628507" fill="white"/>
<ellipse cx="967.931" cy="98.5652" rx="0.628505" ry="0.628507" fill="white"/>
<circle cx="1062.24" cy="98.5652" r="0.628507" fill="white"/>
<circle cx="1156.56" cy="98.5652" r="0.628507" fill="white"/>
<ellipse cx="1250.87" cy="98.5652" rx="0.628481" ry="0.628507" fill="white"/>
<ellipse cx="1345.18" cy="98.5652" rx="0.62849" ry="0.628507" fill="white"/>
<ellipse cx="1439.49" cy="98.5652" rx="0.628525" ry="0.628507" fill="white"/>
<ellipse cx="1533.8" cy="98.5652" rx="0.628559" ry="0.628507" fill="white"/>
<ellipse cx="1628.12" cy="98.5652" rx="0.62849" ry="0.628507" fill="white"/>
<ellipse cx="1722.43" cy="98.5652" rx="0.628525" ry="0.628507" fill="white"/>
<ellipse cx="1816.74" cy="98.5652" rx="0.62849" ry="0.628507" fill="white"/>
<ellipse cx="949.069" cy="161.44" rx="0.628506" ry="0.628507" fill="white"/>
<circle cx="1043.38" cy="161.44" r="0.628507" fill="white"/>
<circle cx="1137.69" cy="161.44" r="0.628507" fill="white"/>
<ellipse cx="1232.01" cy="161.44" rx="0.628499" ry="0.628507" fill="white"/>
<circle cx="1326.32" cy="161.44" r="0.628507" fill="white"/>
<ellipse cx="1420.63" cy="161.44" rx="0.628559" ry="0.628507" fill="white"/>
<circle cx="1514.94" cy="161.44" r="0.628507" fill="white"/>
<ellipse cx="1609.25" cy="161.44" rx="0.628525" ry="0.628507" fill="white"/>
<ellipse cx="1703.57" cy="161.44" rx="0.62849" ry="0.628507" fill="white"/>
<ellipse cx="1797.88" cy="161.44" rx="0.62849" ry="0.628507" fill="white"/>
<ellipse cx="967.931" cy="224.315" rx="0.628505" ry="0.628507" fill="white"/>
<circle cx="1062.24" cy="224.315" r="0.628507" fill="white"/>
<circle cx="1156.56" cy="224.315" r="0.628507" fill="white"/>
<ellipse cx="1250.87" cy="224.315" rx="0.628481" ry="0.628507" fill="white"/>
<ellipse cx="1345.18" cy="224.315" rx="0.62849" ry="0.628507" fill="white"/>
<ellipse cx="1439.49" cy="224.315" rx="0.628525" ry="0.628507" fill="white"/>
<ellipse cx="1533.8" cy="224.315" rx="0.628559" ry="0.628507" fill="white"/>
<ellipse cx="1628.12" cy="224.315" rx="0.62849" ry="0.628507" fill="white"/>
<ellipse cx="1722.43" cy="224.315" rx="0.628525" ry="0.628507" fill="white"/>
<ellipse cx="1816.74" cy="224.315" rx="0.62849" ry="0.628507" fill="white"/>
<ellipse cx="936.494" cy="288.447" rx="0.628505" ry="0.628507" fill="white"/>
<ellipse cx="1030.81" cy="288.447" rx="0.628497" ry="0.628507" fill="white"/>
<circle cx="1125.12" cy="288.447" r="0.628507" fill="white"/>
<circle cx="1219.43" cy="288.447" r="0.628507" fill="white"/>
<circle cx="1313.74" cy="288.447" r="0.628507" fill="white"/>
<circle cx="1408.06" cy="288.447" r="0.628507" fill="white"/>
<ellipse cx="1502.37" cy="288.447" rx="0.628438" ry="0.628507" fill="white"/>
<ellipse cx="1596.68" cy="288.447" rx="0.62849" ry="0.628507" fill="white"/>
<ellipse cx="1690.99" cy="288.447" rx="0.62849" ry="0.628507" fill="white"/>
<ellipse cx="1785.3" cy="288.447" rx="0.628525" ry="0.628507" fill="white"/>
<ellipse cx="974.218" cy="351.322" rx="0.628505" ry="0.628507" fill="white"/>
<circle cx="1068.53" cy="351.322" r="0.628507" fill="white"/>
<circle cx="1162.84" cy="351.322" r="0.628507" fill="white"/>
<circle cx="1257.16" cy="351.322" r="0.628507" fill="white"/>
<circle cx="1351.47" cy="351.322" r="0.628507" fill="white"/>
<ellipse cx="1445.78" cy="351.322" rx="0.628438" ry="0.628507" fill="white"/>
<circle cx="1540.09" cy="351.322" r="0.628507" fill="white"/>
<ellipse cx="1634.4" cy="351.322" rx="0.62849" ry="0.628507" fill="white"/>
<ellipse cx="1728.72" cy="351.322" rx="0.628525" ry="0.628507" fill="white"/>
<ellipse cx="961.643" cy="414.197" rx="0.628506" ry="0.62849" fill="white"/>
<ellipse cx="1055.96" cy="414.197" rx="0.628507" ry="0.62849" fill="white"/>
<ellipse cx="1150.27" cy="414.197" rx="0.628507" ry="0.62849" fill="white"/>
<ellipse cx="1244.58" cy="414.197" rx="0.628481" ry="0.62849" fill="white"/>
<ellipse cx="1338.89" cy="414.197" rx="0.628507" ry="0.62849" fill="white"/>
<ellipse cx="1433.2" cy="414.197" rx="0.628559" ry="0.62849" fill="white"/>
<ellipse cx="1527.52" cy="414.197" rx="0.628507" ry="0.62849" fill="white"/>
<circle cx="1621.83" cy="414.197" r="0.62849" fill="white"/>
<circle cx="1716.14" cy="414.197" r="0.62849" fill="white"/>
<ellipse cx="1810.45" cy="414.197" rx="0.628525" ry="0.62849" fill="white"/>
<ellipse cx="999.369" cy="477.072" rx="0.628506" ry="0.628525" fill="white"/>
<ellipse cx="1093.68" cy="477.072" rx="0.628507" ry="0.628525" fill="white"/>
<ellipse cx="1187.99" cy="477.072" rx="0.628507" ry="0.628525" fill="white"/>
<ellipse cx="1282.31" cy="477.072" rx="0.628507" ry="0.628525" fill="white"/>
<ellipse cx="1376.62" cy="477.072" rx="0.628507" ry="0.628525" fill="white"/>
<ellipse cx="1470.93" cy="477.072" rx="0.628507" ry="0.628525" fill="white"/>
<ellipse cx="1565.24" cy="477.072" rx="0.628421" ry="0.628525" fill="white"/>
<ellipse cx="1659.55" cy="477.072" rx="0.62849" ry="0.628525" fill="white"/>
<circle cx="1753.87" cy="477.072" r="0.628525" fill="white"/>
<ellipse cx="1848.18" cy="477.072" rx="0.62849" ry="0.628525" fill="white"/>
<ellipse cx="949.069" cy="539.946" rx="0.628506" ry="0.62849" fill="white"/>
<ellipse cx="1043.38" cy="539.946" rx="0.628507" ry="0.62849" fill="white"/>
<ellipse cx="1137.69" cy="539.946" rx="0.628507" ry="0.62849" fill="white"/>
<ellipse cx="1232.01" cy="539.946" rx="0.628499" ry="0.62849" fill="white"/>
<ellipse cx="1326.32" cy="539.946" rx="0.628507" ry="0.62849" fill="white"/>
<ellipse cx="1420.63" cy="539.946" rx="0.628559" ry="0.62849" fill="white"/>
<ellipse cx="1514.94" cy="539.946" rx="0.628507" ry="0.62849" fill="white"/>
<ellipse cx="1609.25" cy="539.946" rx="0.628525" ry="0.62849" fill="white"/>
<circle cx="1703.57" cy="539.946" r="0.62849" fill="white"/>
<circle cx="1797.88" cy="539.946" r="0.62849" fill="white"/>
<ellipse cx="967.931" cy="602.821" rx="0.628505" ry="0.628525" fill="white"/>
<ellipse cx="1062.24" cy="602.821" rx="0.628507" ry="0.628525" fill="white"/>
<ellipse cx="1156.56" cy="602.821" rx="0.628507" ry="0.628525" fill="white"/>
<ellipse cx="1250.87" cy="602.821" rx="0.628481" ry="0.628525" fill="white"/>
<ellipse cx="1345.18" cy="602.821" rx="0.62849" ry="0.628525" fill="white"/>
<circle cx="1439.49" cy="602.821" r="0.628525" fill="white"/>
<ellipse cx="1533.8" cy="602.821" rx="0.628559" ry="0.628525" fill="white"/>
<ellipse cx="1628.12" cy="602.821" rx="0.62849" ry="0.628525" fill="white"/>
<circle cx="1722.43" cy="602.821" r="0.628525" fill="white"/>
<ellipse cx="1816.74" cy="602.821" rx="0.62849" ry="0.628525" fill="white"/>
<ellipse cx="1011.94" cy="671.983" rx="0.628505" ry="0.62849" fill="white"/>
<circle cx="1106.26" cy="671.983" r="0.62849" fill="white"/>
<ellipse cx="1200.57" cy="671.983" rx="0.628516" ry="0.62849" fill="white"/>
<ellipse cx="1294.88" cy="671.983" rx="0.628507" ry="0.62849" fill="white"/>
<circle cx="1389.19" cy="671.983" r="0.62849" fill="white"/>
<ellipse cx="1483.5" cy="671.983" rx="0.628507" ry="0.62849" fill="white"/>
<ellipse cx="1577.82" cy="671.983" rx="0.628559" ry="0.62849" fill="white"/>
<ellipse cx="1672.13" cy="671.983" rx="0.628525" ry="0.62849" fill="white"/>
<circle cx="1766.44" cy="671.983" r="0.62849" fill="white"/>
<circle cx="1860.75" cy="671.983" r="0.62849" fill="white"/>
<ellipse cx="974.218" cy="741.146" rx="0.628505" ry="0.628525" fill="white"/>
<ellipse cx="1068.53" cy="741.146" rx="0.628507" ry="0.628525" fill="white"/>
<ellipse cx="1162.84" cy="741.146" rx="0.628507" ry="0.628525" fill="white"/>
<ellipse cx="1257.16" cy="741.146" rx="0.628507" ry="0.628525" fill="white"/>
<ellipse cx="1351.47" cy="741.146" rx="0.628507" ry="0.628525" fill="white"/>
<ellipse cx="1445.78" cy="741.146" rx="0.628438" ry="0.628525" fill="white"/>
<ellipse cx="1540.09" cy="741.146" rx="0.628507" ry="0.628525" fill="white"/>
<ellipse cx="1634.4" cy="741.146" rx="0.62849" ry="0.628525" fill="white"/>
<circle cx="1728.72" cy="741.146" r="0.628525" fill="white"/>
<ellipse cx="1823.03" cy="741.146" rx="0.62849" ry="0.628525" fill="white"/>
<ellipse cx="1024.52" cy="809.051" rx="0.628512" ry="0.628456" fill="white"/>
<ellipse cx="1118.83" cy="809.051" rx="0.62849" ry="0.628456" fill="white"/>
<ellipse cx="1213.14" cy="809.051" rx="0.628542" ry="0.628456" fill="white"/>
<ellipse cx="1307.45" cy="809.051" rx="0.628507" ry="0.628456" fill="white"/>
<ellipse cx="1401.77" cy="809.051" rx="0.62849" ry="0.628456" fill="white"/>
<ellipse cx="1496.08" cy="809.051" rx="0.628525" ry="0.628456" fill="white"/>
<ellipse cx="1590.39" cy="809.051" rx="0.628559" ry="0.628456" fill="white"/>
<ellipse cx="1684.7" cy="809.051" rx="0.62849" ry="0.628456" fill="white"/>
<ellipse cx="1779.02" cy="809.051" rx="0.628525" ry="0.628456" fill="white"/>
<ellipse cx="986.794" cy="878.213" rx="0.628505" ry="0.628525" fill="white"/>
<ellipse cx="1081.11" cy="878.213" rx="0.62849" ry="0.628525" fill="white"/>
<ellipse cx="1175.42" cy="878.213" rx="0.628507" ry="0.628525" fill="white"/>
<ellipse cx="1269.73" cy="878.213" rx="0.628542" ry="0.628525" fill="white"/>
<ellipse cx="1364.04" cy="878.213" rx="0.628507" ry="0.628525" fill="white"/>
<ellipse cx="1458.36" cy="878.213" rx="0.628507" ry="0.628525" fill="white"/>
<circle cx="1552.67" cy="878.213" r="0.628525" fill="white"/>
<ellipse cx="1646.98" cy="878.213" rx="0.62849" ry="0.628525" fill="white"/>
<ellipse cx="1741.29" cy="878.213" rx="0.62849" ry="0.628525" fill="white"/>
<circle cx="1835.6" cy="878.213" r="0.628525" fill="white"/>
<ellipse cx="949.069" cy="947.376" rx="0.628506" ry="0.62849" fill="white"/>
<ellipse cx="1043.38" cy="947.376" rx="0.628507" ry="0.62849" fill="white"/>
<ellipse cx="1137.69" cy="947.376" rx="0.628507" ry="0.62849" fill="white"/>
<ellipse cx="1232.01" cy="947.376" rx="0.628499" ry="0.62849" fill="white"/>
<ellipse cx="1326.32" cy="947.376" rx="0.628507" ry="0.62849" fill="white"/>
<ellipse cx="1420.63" cy="947.376" rx="0.628559" ry="0.62849" fill="white"/>
<ellipse cx="1514.94" cy="947.376" rx="0.628507" ry="0.62849" fill="white"/>
<ellipse cx="1609.25" cy="947.376" rx="0.628525" ry="0.62849" fill="white"/>
<circle cx="1703.57" cy="947.376" r="0.62849" fill="white"/>
<circle cx="1797.88" cy="947.376" r="0.62849" fill="white"/>
<ellipse cx="986.794" cy="1016.54" rx="0.628505" ry="0.628421" fill="white"/>
<ellipse cx="1081.11" cy="1016.54" rx="0.62849" ry="0.628421" fill="white"/>
<ellipse cx="1175.42" cy="1016.54" rx="0.628507" ry="0.628421" fill="white"/>
<ellipse cx="1269.73" cy="1016.54" rx="0.628542" ry="0.628421" fill="white"/>
<ellipse cx="1364.04" cy="1016.54" rx="0.628507" ry="0.628421" fill="white"/>
<ellipse cx="1458.36" cy="1016.54" rx="0.628507" ry="0.628421" fill="white"/>
<ellipse cx="1552.67" cy="1016.54" rx="0.628525" ry="0.628421" fill="white"/>
<ellipse cx="1646.98" cy="1016.54" rx="0.62849" ry="0.628421" fill="white"/>
<ellipse cx="1741.29" cy="1016.54" rx="0.62849" ry="0.628421" fill="white"/>
<ellipse cx="961.643" cy="1079.41" rx="0.628506" ry="0.62849" fill="white"/>
<ellipse cx="1055.96" cy="1079.41" rx="0.628507" ry="0.62849" fill="white"/>
<ellipse cx="1150.27" cy="1079.41" rx="0.628507" ry="0.62849" fill="white"/>
<ellipse cx="1244.58" cy="1079.41" rx="0.628481" ry="0.62849" fill="white"/>
<ellipse cx="1338.89" cy="1079.41" rx="0.628507" ry="0.62849" fill="white"/>
<ellipse cx="1433.2" cy="1079.41" rx="0.628559" ry="0.62849" fill="white"/>
<ellipse cx="1527.52" cy="1079.41" rx="0.628507" ry="0.62849" fill="white"/>
<circle cx="1621.83" cy="1079.41" r="0.62849" fill="white"/>
<circle cx="1716.14" cy="1079.41" r="0.62849" fill="white"/>
<circle cx="1716.14" cy="1079.41" r="0.62849" fill="white"/>
<ellipse cx="1835.6" cy="1016.54" rx="0.628525" ry="0.628421" fill="white"/>
<ellipse cx="970.447" cy="92.9063" rx="1.25701" ry="1.25701" fill="white"/>
<ellipse cx="1159.07" cy="99.1937" rx="1.25701" ry="1.25701" fill="white"/>
<circle cx="1347.7" cy="92.9063" r="1.25701" fill="white"/>
<ellipse cx="1536.32" cy="86.6188" rx="1.25696" ry="1.25701" fill="white"/>
<circle cx="1724.94" cy="92.9063" r="1.25701" fill="white"/>
<ellipse cx="1913.57" cy="99.1937" rx="1.25688" ry="1.25701" fill="white"/>
<ellipse cx="1045.9" cy="218.656" rx="1.257" ry="1.25701" fill="white"/>
<ellipse cx="1234.52" cy="224.943" rx="1.25698" ry="1.25701" fill="white"/>
<ellipse cx="1423.14" cy="218.656" rx="1.25696" ry="1.25701" fill="white"/>
<circle cx="1611.77" cy="212.368" r="1.25701" fill="white"/>
<ellipse cx="1800.39" cy="218.656" rx="1.25698" ry="1.25701" fill="white"/>
<ellipse cx="1014.46" cy="345.663" rx="1.25701" ry="1.25701" fill="white"/>
<circle cx="1203.08" cy="351.95" r="1.25701" fill="white"/>
<circle cx="1391.71" cy="345.663" r="1.25701" fill="white"/>
<ellipse cx="1580.33" cy="339.375" rx="1.25705" ry="1.257" fill="white"/>
<ellipse cx="1768.96" cy="345.663" rx="1.25698" ry="1.25701" fill="white"/>
<ellipse cx="983.021" cy="471.413" rx="1.25701" ry="1.25701" fill="white"/>
<ellipse cx="1171.65" cy="477.7" rx="1.25701" ry="1.25701" fill="white"/>
<ellipse cx="1360.27" cy="471.413" rx="1.257" ry="1.25701" fill="white"/>
<ellipse cx="1548.89" cy="465.125" rx="1.25708" ry="1.25701" fill="white"/>
<circle cx="1737.52" cy="471.413" r="1.25701" fill="white"/>
<ellipse cx="1083.62" cy="597.162" rx="1.25702" ry="1.25701" fill="white"/>
<ellipse cx="1272.25" cy="603.45" rx="1.25701" ry="1.25705" fill="white"/>
<ellipse cx="1460.87" cy="597.162" rx="1.257" ry="1.25701" fill="white"/>
<circle cx="1649.49" cy="590.875" r="1.25701" fill="white"/>
<circle cx="1838.12" cy="597.162" r="1.25701" fill="white"/>
<ellipse cx="966.045" cy="722.912" rx="1.25701" ry="1.25701" fill="white"/>
<ellipse cx="1154.67" cy="729.199" rx="1.25701" ry="1.25701" fill="white"/>
<circle cx="1343.29" cy="722.912" r="1.25701" fill="white"/>
<circle cx="1531.92" cy="716.624" r="1.25701" fill="white"/>
<circle cx="1720.54" cy="722.912" r="1.25701" fill="white"/>
<ellipse cx="1909.17" cy="727.942" rx="1.25691" ry="1.25705" fill="white"/>
<ellipse cx="980.506" cy="831.057" rx="1.25701" ry="1.25701" fill="white"/>
<circle cx="1169.13" cy="837.344" r="1.25701" fill="white"/>
<circle cx="1357.76" cy="831.057" r="1.25701" fill="white"/>
<ellipse cx="1546.38" cy="824.769" rx="1.25698" ry="1.25701" fill="white"/>
<circle cx="1735" cy="831.057" r="1.25701" fill="white"/>
<ellipse cx="1026.4" cy="965.609" rx="1.25701" ry="1.25701" fill="white"/>
<circle cx="1215.03" cy="971.896" r="1.25698" fill="white"/>
<circle cx="1403.65" cy="965.609" r="1.25701" fill="white"/>
<ellipse cx="1592.28" cy="959.321" rx="1.25695" ry="1.25701" fill="white"/>
<ellipse cx="1780.9" cy="965.609" rx="1.25698" ry="1.25701" fill="white"/>
<ellipse cx="1829.32" cy="1077.53" rx="1.25701" ry="1.25705" fill="white"/>
<ellipse cx="920.146" cy="36.3189" rx="1.25701" ry="1.25701" fill="white"/>
<ellipse cx="1108.77" cy="42.6064" rx="1.257" ry="1.25701" fill="white"/>
<ellipse cx="1297.4" cy="36.3189" rx="1.257" ry="1.25701" fill="white"/>
<ellipse cx="1486.02" cy="30.0315" rx="1.257" ry="1.25701" fill="white"/>
<ellipse cx="1674.64" cy="36.3189" rx="1.25701" ry="1.25701" fill="white"/>
<ellipse cx="1863.27" cy="42.6064" rx="1.25705" ry="1.25701" fill="white"/>
<ellipse cx="882.421" cy="162.069" rx="1.25701" ry="1.25701" fill="white"/>
<ellipse cx="1071.05" cy="168.356" rx="1.25701" ry="1.25703" fill="white"/>
<circle cx="1259.67" cy="162.069" r="1.25701" fill="white"/>
<ellipse cx="1448.29" cy="155.781" rx="1.25707" ry="1.25701" fill="white"/>
<ellipse cx="1636.92" cy="162.069" rx="1.25705" ry="1.25701" fill="white"/>
<ellipse cx="1825.54" cy="168.356" rx="1.25698" ry="1.25703" fill="white"/>
<ellipse cx="957.871" cy="289.075" rx="1.25701" ry="1.25701" fill="white"/>
<ellipse cx="1146.49" cy="295.363" rx="1.25701" ry="1.257" fill="white"/>
<circle cx="1335.12" cy="289.075" r="1.25701" fill="white"/>
<ellipse cx="1523.74" cy="282.788" rx="1.25703" ry="1.25701" fill="white"/>
<ellipse cx="1712.37" cy="289.075" rx="1.25698" ry="1.25701" fill="white"/>
<circle cx="1900.99" cy="294.106" r="1.25701" fill="white"/>
<ellipse cx="926.434" cy="414.825" rx="1.25701" ry="1.25698" fill="white"/>
<ellipse cx="1115.06" cy="421.113" rx="1.25701" ry="1.25701" fill="white"/>
<ellipse cx="1303.68" cy="414.825" rx="1.257" ry="1.25698" fill="white"/>
<ellipse cx="1492.31" cy="408.538" rx="1.25707" ry="1.25701" fill="white"/>
<ellipse cx="1680.93" cy="414.825" rx="1.25701" ry="1.25698" fill="white"/>
<circle cx="1869.56" cy="421.113" r="1.25701" fill="white"/>
<ellipse cx="894.996" cy="539.318" rx="1.25701" ry="1.25701" fill="white"/>
<ellipse cx="1083.62" cy="546.862" rx="1.25702" ry="1.25701" fill="white"/>
<circle cx="1272.24" cy="540.575" r="1.25701" fill="white"/>
<ellipse cx="1460.87" cy="534.287" rx="1.257" ry="1.25701" fill="white"/>
<circle cx="1649.49" cy="540.575" r="1.25701" fill="white"/>
<circle cx="1838.12" cy="546.862" r="1.25701" fill="white"/>
<ellipse cx="995.596" cy="666.324" rx="1.25701" ry="1.25698" fill="white"/>
<circle cx="1184.22" cy="672.612" r="1.25701" fill="white"/>
<ellipse cx="1372.84" cy="666.324" rx="1.25701" ry="1.25698" fill="white"/>
<ellipse cx="1561.47" cy="660.037" rx="1.25708" ry="1.25701" fill="white"/>
<ellipse cx="1750.09" cy="666.324" rx="1.25705" ry="1.25698" fill="white"/>
<ellipse cx="878.02" cy="790.817" rx="1.25701" ry="1.25701" fill="white"/>
<ellipse cx="1066.64" cy="797.104" rx="1.25701" ry="1.25701" fill="white"/>
<ellipse cx="1255.27" cy="790.817" rx="1.25703" ry="1.25701" fill="white"/>
<ellipse cx="1443.89" cy="784.529" rx="1.25707" ry="1.25701" fill="white"/>
<circle cx="1632.52" cy="790.817" r="1.25701" fill="white"/>
<circle cx="1821.14" cy="797.104" r="1.25701" fill="white"/>
<ellipse cx="892.481" cy="900.219" rx="1.25701" ry="1.25698" fill="white"/>
<ellipse cx="1081.11" cy="906.507" rx="1.257" ry="1.25701" fill="white"/>
<ellipse cx="1269.73" cy="900.219" rx="1.257" ry="1.25698" fill="white"/>
<ellipse cx="1458.35" cy="893.932" rx="1.25707" ry="1.25705" fill="white"/>
<ellipse cx="1646.98" cy="900.219" rx="1.25701" ry="1.25698" fill="white"/>
<circle cx="1835.6" cy="906.507" r="1.25701" fill="white"/>
<ellipse cx="938.379" cy="1034.77" rx="1.25701" ry="1.25698" fill="white"/>
<ellipse cx="1127" cy="1041.06" rx="1.25701" ry="1.25698" fill="white"/>
<ellipse cx="1315.63" cy="1034.77" rx="1.25701" ry="1.25698" fill="white"/>
<ellipse cx="1504.25" cy="1028.48" rx="1.25696" ry="1.25698" fill="white"/>
<ellipse cx="1692.88" cy="1034.77" rx="1.25701" ry="1.25698" fill="white"/>
<ellipse cx="1881.5" cy="1041.06" rx="1.25691" ry="1.25698" fill="white"/>
</svg>
